<?xml version="1.0" encoding="utf-8"?>
<!-- Generator: Adobe Illustrator 19.0.0, SVG Export Plug-In . SVG Version: 6.00 Build 0)  -->
<svg version="1.1" id="Layer_1" xmlns="http://www.w3.org/2000/svg" xmlns:xlink="http://www.w3.org/1999/xlink" x="0px" y="0px"
	 viewBox="0 0 283.5 141" enable-background="new 0 0 283.5 141" xml:space="preserve">
<g id="XMLID_23_">
	<g id="XMLID_295_">
		<rect id="XMLID_27_" x="0.6" y="73.4" fill="#008BC7" width="213.8" height="67.1"/>
		<path id="XMLID_24_" fill="#8FD8F5" d="M213.8,74v65.9H1.1V74H213.8 M214.9,72.8H0V141h214.9V72.8L214.9,72.8z"/>
	</g>
	<g id="XMLID_298_">
		<polygon id="XMLID_21_" fill="#0070B1" points="1.6,72.2 87.6,0.6 282.1,0.6 214.7,72.2 		"/>
		<path id="XMLID_18_" fill="#8FD8F5" d="M280.8,1.1l-66.4,70.5H3.1L87.8,1.1H280.8 M283.5,0H87.4L0,72.8h214.9L283.5,0L283.5,0z"/>
	</g>
	<g id="XMLID_297_">
		<polygon id="XMLID_16_" fill="#0073B2" points="215.5,73 282.9,1.4 282.9,68 215.5,139.6 		"/>
		<path id="XMLID_13_" fill="#8FD8F5" d="M282.3,2.9v64.9l-66.2,70.4V73.3L282.3,2.9 M283.5,0l-68.5,72.8V141l68.5-72.8V0L283.5,0z"
			/>
	</g>
	<g id="XMLID_300_">
		
			<polygon id="XMLID_303_" fill="#EDEDED" stroke="#000000" stroke-width="0.5694" stroke-linejoin="round" stroke-miterlimit="10" points="
			128.1,49.7 75.7,49.7 80.2,44.2 52.9,52 65.9,61.3 70.7,55.5 123.2,55.5 		"/>
		
			<polygon id="XMLID_301_" fill="#EDEDED" stroke="#000000" stroke-width="0.5694" stroke-linejoin="round" stroke-miterlimit="10" points="
			164.8,24.1 112.3,24.1 116.9,18.6 89.5,26.4 102.6,35.7 107.4,29.9 159.8,29.9 		"/>
		
			<polygon id="XMLID_304_" fill="#EDEDED" stroke="#000000" stroke-width="0.5694" stroke-linejoin="round" stroke-miterlimit="10" points="
			162.9,16.2 215.3,16.2 210.8,21.6 238.1,13.9 225.1,4.6 220.2,10.3 167.8,10.3 		"/>
		
			<polygon id="XMLID_302_" fill="#EDEDED" stroke="#000000" stroke-width="0.5694" stroke-linejoin="round" stroke-miterlimit="10" points="
			134.7,42.7 187.1,42.7 182.6,48.2 210,40.4 196.9,31.1 192.1,36.9 139.6,36.9 		"/>
	</g>
</g>
</svg>
