<?xml version="1.0" encoding="utf-8"?>
<!-- Generator: Adobe Illustrator 19.0.0, SVG Export Plug-In . SVG Version: 6.00 Build 0)  -->
<svg version="1.1" id="Layer_1" xmlns="http://www.w3.org/2000/svg" xmlns:xlink="http://www.w3.org/1999/xlink" x="0px" y="0px"
	 viewBox="0 0 283.5 282.2" enable-background="new 0 0 283.5 282.2" xml:space="preserve">
<g id="XMLID_101_">
	<g id="XMLID_315_">
		<rect id="XMLID_72_" x="0.8" y="29.9" fill="#008BC7" width="254.3" height="251.6"/>
		<path id="XMLID_69_" fill="#8FD8F5" d="M254.3,30.6v250.1H1.5V30.6H254.3 M255.8,29.1H0v253.1h255.8V29.1L255.8,29.1z"/>
	</g>
	<g id="XMLID_296_">
		<polygon id="XMLID_66_" fill="#0070B1" points="2.3,28.4 40.7,0.7 281.7,0.7 255.5,28.4 		"/>
		<path id="XMLID_63_" fill="#8FD8F5" d="M280,1.5l-24.8,26.1H4.7L41,1.5H280 M283.5,0h-243L0,29.1h255.8L283.5,0L283.5,0z"/>
	</g>
	<g id="XMLID_256_">
		<polygon id="XMLID_61_" fill="#0073B2" points="256.5,29.4 282.7,1.9 282.7,252.8 256.5,280.4 		"/>
		<path id="XMLID_58_" fill="#8FD8F5" d="M282,3.8v248.8l-24.7,26V29.7L282,3.8 M283.5,0l-27.7,29.1v253.1l27.7-29.1V0L283.5,0z"/>
	</g>
	<g id="XMLID_321_">
		<g id="XMLID_324_">
			<path id="XMLID_56_" fill="#EDEDED" d="M123.9,107.7c-0.1,0-0.2-0.1-0.2-0.2V62.6h-9.4c-0.1,0-0.1,0-0.2-0.1c0-0.1,0-0.1,0-0.2
				l13.6-22.2c0-0.1,0.1-0.1,0.2-0.1c0,0,0,0,0,0c0.1,0,0.1,0,0.2,0.1l14.2,22.2c0,0.1,0,0.1,0,0.2c0,0.1-0.1,0.1-0.2,0.1h-9.4v44.8
				c0,0.1-0.1,0.2-0.2,0.2H123.9z"/>
			<path id="XMLID_53_" d="M127.9,40.3l14.2,22.2h-9.6v45h-8.6v-45h-9.6L127.9,40.3 M127.9,39.9C127.9,39.9,127.9,39.9,127.9,39.9
				c-0.1,0-0.3,0.1-0.3,0.2L114,62.3c-0.1,0.1-0.1,0.3,0,0.4s0.2,0.2,0.3,0.2h9.2v44.6c0,0.2,0.2,0.4,0.4,0.4h8.6
				c0.2,0,0.4-0.2,0.4-0.4V62.8h9.2c0.1,0,0.3-0.1,0.3-0.2c0.1-0.1,0.1-0.3,0-0.4l-14.2-22.2C128.1,40,128,39.9,127.9,39.9
				L127.9,39.9z"/>
		</g>
		<g id="XMLID_322_">
			<path id="XMLID_51_" fill="#EDEDED" d="M91,124.6c0,0-0.1,0-0.1-0.1L59.1,92.9l-6.6,6.7c0,0-0.1,0.1-0.1,0.1c0,0,0,0-0.1,0
				c-0.1,0-0.1-0.1-0.1-0.1l-6-25.3c0-0.1,0-0.1,0-0.2c0,0,0.1-0.1,0.1-0.1c0,0,0,0,0,0L72,79.6c0.1,0,0.1,0.1,0.1,0.1
				c0,0.1,0,0.1,0,0.2l-6.6,6.6l31.7,31.7c0.1,0.1,0.1,0.2,0,0.3l-6.1,6.1C91.1,124.6,91,124.6,91,124.6z"/>
			<path id="XMLID_48_" d="M46.3,74.1L72,79.7l-6.8,6.8L97,118.4l-6.1,6.1L59.1,92.6l-6.8,6.8L46.3,74.1 M46.3,73.7
				c-0.1,0-0.2,0-0.3,0.1c-0.1,0.1-0.1,0.2-0.1,0.3l6,25.3c0,0.1,0.1,0.2,0.3,0.3c0,0,0.1,0,0.1,0c0.1,0,0.2,0,0.3-0.1l6.5-6.5
				l31.6,31.6c0.1,0.1,0.2,0.1,0.3,0.1s0.2,0,0.3-0.1l6.1-6.1c0.1-0.1,0.1-0.2,0.1-0.3c0-0.1,0-0.2-0.1-0.3L65.7,86.5l6.5-6.5
				c0.1-0.1,0.1-0.2,0.1-0.4c0-0.1-0.1-0.2-0.3-0.3L46.3,73.7C46.4,73.7,46.3,73.7,46.3,73.7L46.3,73.7z"/>
		</g>
		<g id="XMLID_323_">
			<path id="XMLID_46_" fill="#EDEDED" d="M34.7,169.5C34.6,169.5,34.6,169.5,34.7,169.5l-22.3-13.6c-0.1,0-0.1-0.1-0.1-0.2
				s0-0.1,0.1-0.2l22.2-14.2c0,0,0.1,0,0.1,0c0,0,0.1,0,0.1,0c0.1,0,0.1,0.1,0.1,0.2v9.4h44.8c0.1,0,0.2,0.1,0.2,0.2v8.6
				c0,0.1-0.1,0.2-0.2,0.2H34.9v9.4C34.9,169.4,34.8,169.4,34.7,169.5C34.7,169.5,34.7,169.5,34.7,169.5z"/>
			<path id="XMLID_43_" d="M34.7,141.5v9.6h45v8.6h-45v9.6l-22.2-13.6L34.7,141.5 M34.7,141.1c-0.1,0-0.1,0-0.2,0.1l-22.2,14.2
				c-0.1,0.1-0.2,0.2-0.2,0.3c0,0.1,0.1,0.2,0.2,0.3l22.2,13.6c0.1,0,0.1,0.1,0.2,0.1c0.1,0,0.1,0,0.2,0c0.1-0.1,0.2-0.2,0.2-0.3
				v-9.2h44.6c0.2,0,0.4-0.2,0.4-0.4v-8.6c0-0.2-0.2-0.4-0.4-0.4H35.1v-9.2c0-0.1-0.1-0.3-0.2-0.3C34.8,141.2,34.7,141.1,34.7,141.1
				L34.7,141.1z"/>
		</g>
		<g id="XMLID_325_">
			<path id="XMLID_41_" fill="#EDEDED" d="M46.3,237.4c0,0-0.1,0-0.1-0.1c0,0-0.1-0.1-0.1-0.2l5.7-25.7c0-0.1,0.1-0.1,0.1-0.1
				c0,0,0,0,0.1,0c0,0,0.1,0,0.1,0.1l6.6,6.7l31.7-31.7c0,0,0.1-0.1,0.1-0.1s0.1,0,0.1,0.1l6.1,6.1c0.1,0.1,0.1,0.2,0,0.3
				l-31.7,31.7l6.7,6.6c0,0,0.1,0.1,0,0.2c0,0.1-0.1,0.1-0.1,0.1L46.3,237.4C46.3,237.4,46.3,237.4,46.3,237.4z"/>
			<path id="XMLID_38_" d="M90.6,186.5l6.1,6.1l-31.8,31.8l6.8,6.8l-25.3,6l5.7-25.7l6.8,6.8L90.6,186.5 M90.6,186.2
				c-0.1,0-0.2,0-0.3,0.1l-31.6,31.6l-6.5-6.5c-0.1-0.1-0.2-0.1-0.3-0.1c0,0-0.1,0-0.1,0c-0.1,0-0.2,0.1-0.3,0.3l-5.7,25.7
				c0,0.1,0,0.3,0.1,0.3c0.1,0.1,0.2,0.1,0.3,0.1c0,0,0.1,0,0.1,0l25.3-6c0.1,0,0.2-0.1,0.3-0.3s0-0.3-0.1-0.4l-6.5-6.5l31.6-31.6
				c0.1-0.1,0.1-0.4,0-0.5l-6.1-6.1C90.8,186.2,90.7,186.2,90.6,186.2L90.6,186.2z"/>
		</g>
		<g id="XMLID_326_">
			<path id="XMLID_36_" fill="#EDEDED" d="M127.9,271.2c-0.1,0-0.1,0-0.2-0.1L113.6,249c0-0.1,0-0.1,0-0.2c0-0.1,0.1-0.1,0.2-0.1
				h9.4v-44.8c0-0.1,0.1-0.2,0.2-0.2h8.6c0.1,0,0.2,0.1,0.2,0.2v44.8h9.4c0.1,0,0.1,0,0.2,0.1c0,0.1,0,0.1,0,0.2l-13.6,22.2
				C128,271.2,128,271.2,127.9,271.2C127.9,271.2,127.9,271.2,127.9,271.2z"/>
			<path id="XMLID_33_" d="M131.9,203.9v45h9.6l-13.6,22.2l-14.2-22.2h9.6v-45H131.9 M131.9,203.5h-8.6c-0.2,0-0.4,0.2-0.4,0.4v44.6
				h-9.2c-0.1,0-0.3,0.1-0.3,0.2c-0.1,0.1-0.1,0.3,0,0.4l14.2,22.2c0.1,0.1,0.2,0.2,0.3,0.2c0,0,0,0,0,0c0.1,0,0.2-0.1,0.3-0.2
				l13.6-22.2c0.1-0.1,0.1-0.3,0-0.4s-0.2-0.2-0.3-0.2h-9.2v-44.6C132.3,203.7,132.1,203.5,131.9,203.5L131.9,203.5z"/>
		</g>
		<g id="XMLID_327_">
			<path id="XMLID_31_" fill="#EDEDED" d="M209.4,237.4l-25.7-5.7c-0.1,0-0.1-0.1-0.1-0.1c0-0.1,0-0.1,0-0.2l6.7-6.7l-31.7-31.7
				c0,0-0.1-0.1-0.1-0.1s0-0.1,0.1-0.1l6.1-6.1c0,0,0.1-0.1,0.1-0.1s0.1,0,0.1,0.1l31.7,31.7l6.6-6.6c0,0,0.1-0.1,0.1-0.1
				c0,0,0,0,0.1,0c0.1,0,0.1,0.1,0.1,0.1l6,25.3c0,0.1,0,0.1,0,0.2C209.6,237.4,209.5,237.4,209.4,237.4
				C209.5,237.4,209.5,237.4,209.4,237.4z"/>
			<path id="XMLID_28_" d="M164.8,186.9l31.8,31.8l6.8-6.8l6,25.3l-25.7-5.7l6.8-6.8L158.8,193L164.8,186.9 M164.8,186.5
				c-0.1,0-0.2,0-0.3,0.1l-6.1,6.1c-0.1,0.1-0.1,0.2-0.1,0.3c0,0.1,0,0.2,0.1,0.3l31.6,31.6l-6.5,6.5c-0.1,0.1-0.1,0.2-0.1,0.4
				c0,0.1,0.1,0.2,0.3,0.3l25.7,5.7c0,0,0.1,0,0.1,0c0.1,0,0.2,0,0.3-0.1c0.1-0.1,0.1-0.2,0.1-0.3l-6-25.3c0-0.1-0.1-0.2-0.3-0.3
				c0,0-0.1,0-0.1,0c-0.1,0-0.2,0-0.3,0.1l-6.5,6.5l-31.6-31.6C165,186.6,164.9,186.5,164.8,186.5L164.8,186.5z"/>
		</g>
		<g id="XMLID_328_">
			<path id="XMLID_26_" fill="#EDEDED" d="M221.1,170C221.1,170,221,170,221.1,170c-0.2-0.1-0.2-0.1-0.2-0.2v-9.4h-44.8
				c-0.1,0-0.2-0.1-0.2-0.2v-8.6c0-0.1,0.1-0.2,0.2-0.2h44.8v-9.4c0-0.1,0-0.1,0.1-0.2c0,0,0.1,0,0.1,0c0,0,0.1,0,0.1,0l22.2,13.6
				c0.1,0,0.1,0.1,0.1,0.2s0,0.1-0.1,0.2L221.2,170C221.2,170,221.1,170,221.1,170z"/>
			<path id="XMLID_23_" d="M221.1,142.1l22.2,13.6l-22.2,14.2v-9.6h-45v-8.6h45V142.1 M221.1,141.7c-0.1,0-0.1,0-0.2,0
				c-0.1,0.1-0.2,0.2-0.2,0.3v9.2h-44.6c-0.2,0-0.4,0.2-0.4,0.4v8.6c0,0.2,0.2,0.4,0.4,0.4h44.6v9.2c0,0.1,0.1,0.3,0.2,0.3
				c0.1,0,0.1,0,0.2,0c0.1,0,0.1,0,0.2-0.1l22.2-14.2c0.1-0.1,0.2-0.2,0.2-0.3c0-0.1-0.1-0.2-0.2-0.3l-22.2-13.6
				C221.2,141.7,221.2,141.7,221.1,141.7L221.1,141.7z"/>
		</g>
		<g id="XMLID_329_">
			<path id="XMLID_21_" fill="#EDEDED" d="M165.2,125c0,0-0.1,0-0.1-0.1l-6.1-6.1c-0.1-0.1-0.1-0.2,0-0.3l31.7-31.7l-6.6-6.6
				c0,0-0.1-0.1,0-0.2c0-0.1,0.1-0.1,0.1-0.1l25.3-6c0,0,0,0,0,0c0,0,0.1,0,0.1,0.1c0,0,0.1,0.1,0.1,0.2L204,99.8
				c0,0.1-0.1,0.1-0.1,0.1c0,0,0,0-0.1,0c0,0-0.1,0-0.1-0.1l-6.6-6.7L165.4,125C165.3,125,165.3,125,165.2,125z"/>
			<path id="XMLID_18_" d="M209.5,74.1l-5.7,25.7L197,93l-31.8,31.8l-6.1-6.1L191,86.9l-6.8-6.8L209.5,74.1 M209.5,73.7
				C209.4,73.7,209.4,73.7,209.5,73.7l-25.4,6.1c-0.1,0-0.2,0.1-0.3,0.3c0,0.1,0,0.3,0.1,0.4l6.5,6.5l-31.6,31.6
				c-0.1,0.1-0.1,0.4,0,0.5l6.1,6.1c0.1,0.1,0.2,0.1,0.3,0.1c0.1,0,0.2,0,0.3-0.1L197,93.5l6.5,6.5c0.1,0.1,0.2,0.1,0.3,0.1
				c0,0,0.1,0,0.1,0c0.1,0,0.2-0.1,0.3-0.3l5.7-25.7c0-0.1,0-0.3-0.1-0.3C209.7,73.8,209.6,73.7,209.5,73.7L209.5,73.7z"/>
		</g>
		<g id="XMLID_68_">
			<path id="XMLID_16_" fill="#F12C00" d="M127.9,204.5c-26.9,0-48.9-21.9-48.9-48.9s21.9-48.9,48.9-48.9s48.9,21.9,48.9,48.9
				S154.8,204.5,127.9,204.5z"/>
			<path id="XMLID_13_" fill="#FFFFFF" d="M127.9,107.6c26.5,0,48.1,21.6,48.1,48.1s-21.6,48.1-48.1,48.1s-48.1-21.6-48.1-48.1
				S101.4,107.6,127.9,107.6 M127.9,106.1c-27.4,0-49.6,22.2-49.6,49.6s22.2,49.6,49.6,49.6c27.4,0,49.6-22.2,49.6-49.6
				S155.3,106.1,127.9,106.1L127.9,106.1z"/>
		</g>
	</g>
</g>
</svg>
