<?xml version="1.0" encoding="utf-8"?>
<!-- Generator: Adobe Illustrator 19.0.0, SVG Export Plug-In . SVG Version: 6.00 Build 0)  -->
<svg version="1.1" id="Layer_1" xmlns="http://www.w3.org/2000/svg" xmlns:xlink="http://www.w3.org/1999/xlink" x="0px" y="0px"
	 viewBox="0 0 229 283.5" enable-background="new 0 0 229 283.5" xml:space="preserve">
<g id="XMLID_27_">
	<path id="XMLID_29_" d="M114.4,64.7c0,0-3.8-55.6,56.6-64.7C171.1,0,174.1,59.9,114.4,64.7z"/>
	<path id="XMLID_30_" d="M222,96.3c0,0-24,17.5-27.8,35.9c-3.8,18.3-2.2,31.8,3,44c5.1,12.1,16.7,24.5,31.8,31.6
		c0,0-3.5,19.4-22.1,44.8s-25.1,27.8-35.1,30.2c-10,2.4-24.8-4.6-33.4-7.6c-8.6-3-11.9-3.2-19.1-3.2c-7.3,0-20.5,2.7-25.9,5.7
		c-5.4,3-12.7,5.9-19.1,5.9c-6.5,0-18.9-3-31-17.3C31,251.9,4.8,212,1.3,176.4s-0.8-61,16.5-81.2s37-26.4,51.8-26.4
		s38,12.8,47.4,12.6c9.8-0.1,29.1-14.4,55.9-12.9C205.1,70.3,222,96.3,222,96.3z"/>
</g>
</svg>
