<?xml version="1.0" encoding="utf-8"?>
<!-- Generator: Adobe Illustrator 19.0.0, SVG Export Plug-In . SVG Version: 6.00 Build 0)  -->
<svg version="1.1" id="Layer_1" xmlns="http://www.w3.org/2000/svg" xmlns:xlink="http://www.w3.org/1999/xlink" x="0px" y="0px"
	 viewBox="0 0 283.5 141.6" enable-background="new 0 0 283.5 141.6" xml:space="preserve">
<g id="XMLID_64_">
	<g id="XMLID_79_">
		<rect id="XMLID_31_" x="0.6" y="73.7" fill="#008BC7" width="249.2" height="67.4"/>
		<path id="XMLID_28_" fill="#8FD8F5" d="M249.2,74.3v66.2H1.1V74.3H249.2 M250.3,73.1H0v68.5h250.3V73.1L250.3,73.1z"/>
	</g>
	<g id="XMLID_73_">
		<polygon id="XMLID_26_" fill="#0070B1" points="1.1,72.6 54.1,0.6 282.6,0.6 250,72.6 		"/>
		<path id="XMLID_23_" fill="#8FD8F5" d="M281.7,1.1L249.6,72H2.3L54.4,1.1H281.7 M283.5,0H53.8L0,73.1h250.3L283.5,0L283.5,0z"/>
	</g>
	<g id="XMLID_59_">
		<polygon id="XMLID_21_" fill="#0073B2" points="250.9,73.3 282.9,2.6 282.9,68.4 250.9,139 		"/>
		<path id="XMLID_18_" fill="#8FD8F5" d="M282.3,5.3v63l-30.8,68.1v-63L282.3,5.3 M283.5,0l-33.1,73.1v68.5l33.1-73.1V0L283.5,0z"/>
	</g>
	<g id="XMLID_71_">
		<path id="XMLID_16_" fill="#EDEDED" d="M133.2,48.9c-0.1,0-0.2,0-0.2-0.1c-0.1-0.1-0.1-0.2,0-0.3l4.5-8H53.2
			c-0.1,0-0.2-0.1-0.2-0.1c-0.1-0.1-0.1-0.2,0-0.3l7-12.4c0.1-0.1,0.1-0.1,0.2-0.1h84.7l4.3-7.5c0.1-0.1,0.1-0.1,0.2-0.1
			c0,0,0,0,0,0L241,33.9c0.1,0,0.2,0.1,0.2,0.3c0,0.1-0.1,0.3-0.2,0.3C241,34.5,133.2,48.9,133.2,48.9z"/>
		<path id="XMLID_13_" d="M149.4,20.1l91.5,14.1L133.2,48.6l4.8-8.4H53.2l7-12.4H145L149.4,20.1 M149.4,19.5c-0.2,0-0.4,0.1-0.5,0.3
			l-4.2,7.4H60.2c-0.2,0-0.4,0.1-0.5,0.3l-7,12.4c-0.1,0.2-0.1,0.4,0,0.6c0.1,0.2,0.3,0.3,0.5,0.3H137l-4.3,7.6
			c-0.1,0.2-0.1,0.4,0,0.6c0.1,0.2,0.3,0.3,0.5,0.3c0,0,0.1,0,0.1,0L241,34.8c0.3,0,0.5-0.3,0.5-0.6c0-0.3-0.2-0.5-0.5-0.6
			L149.4,19.5C149.4,19.5,149.4,19.5,149.4,19.5L149.4,19.5z"/>
	</g>
</g>
</svg>
