<?xml version="1.0" encoding="utf-8"?>
<!-- Generator: Adobe Illustrator 19.0.0, SVG Export Plug-In . SVG Version: 6.00 Build 0)  -->
<svg version="1.1" id="Layer_1" xmlns="http://www.w3.org/2000/svg" xmlns:xlink="http://www.w3.org/1999/xlink" x="0px" y="0px"
	 viewBox="0 0 283.5 239" enable-background="new 0 0 283.5 239" xml:space="preserve">
<g id="XMLID_95_">
	<path id="XMLID_80_" fill="#221714" d="M283.5,165.7H0V10.4C0,4.7,4.7,0,10.4,0h262.6c5.7,0,10.4,4.7,10.4,10.4V165.7z"/>
	<path id="XMLID_81_" fill="#CED5E0" d="M283.5,165.7H0v18.9c0,5.7,4.7,10.4,10.4,10.4h262.6c5.7,0,10.4-4.7,10.4-10.4V165.7z"/>
	<circle id="XMLID_82_" fill="#9BA1B2" cx="141.7" cy="180.4" r="7.1"/>
	<rect id="XMLID_83_" x="14.5" y="14.2" fill="#76AFDD" width="254.6" height="137.2"/>
	<path id="XMLID_91_" fill="#CED5E0" d="M103,239c-2.7,0-4.8-2.2-4.8-4.8s2.2-4.8,4.8-4.8H181c2.7,0,4.8,2.2,4.8,4.8
		s-2.2,4.8-4.8,4.8H103z"/>
	<polygon id="XMLID_90_" fill="#B6BFD1" points="103.8,229.4 107.9,195 176.1,195 180.1,229.4 	"/>
	<polygon id="XMLID_94_" fill="#9BA1B2" points="107.9,195 106.2,209 177.7,209 176.1,195 	"/>
</g>
</svg>
