<?xml version="1.0" encoding="utf-8"?>
<!-- Generator: Adobe Illustrator 19.0.0, SVG Export Plug-In . SVG Version: 6.00 Build 0)  -->
<svg version="1.1" id="Layer_1" xmlns="http://www.w3.org/2000/svg" xmlns:xlink="http://www.w3.org/1999/xlink" x="0px" y="0px"
	 viewBox="0 0 126.4 283.2" enable-background="new 0 0 126.4 283.2" xml:space="preserve">
<rect id="XMLID_294_" fill="none" width="126.4" height="283.2"/>
<g id="XMLID_358_">
	
		<rect id="XMLID_102_" x="1.3" y="48.8" fill="#AA0000" stroke="#E3E3E3" stroke-width="2.6038" stroke-linejoin="round" stroke-miterlimit="10" width="75.4" height="233.1"/>
	
		<polygon id="XMLID_211_" fill="#FF555D" stroke="#E3E3E3" stroke-width="2.6038" stroke-linejoin="round" stroke-miterlimit="10" points="
		125.1,1.3 53.2,1.3 1.3,48.8 76.7,48.8 	"/>
	
		<polygon id="XMLID_104_" fill="#770000" stroke="#E3E3E3" stroke-width="2.6038" stroke-linejoin="round" stroke-miterlimit="10" points="
		76.7,281.9 125.1,234.4 125.1,1.3 76.7,48.8 	"/>
	
		<line id="XMLID_103_" fill="none" stroke="#E3E3E3" stroke-width="2.6038" stroke-miterlimit="10" x1="1.3" y1="241.6" x2="76.7" y2="241.6"/>
	
		<line id="XMLID_213_" fill="none" stroke="#E3E3E3" stroke-width="2.6038" stroke-miterlimit="10" x1="1.3" y1="203.8" x2="76.7" y2="203.8"/>
	
		<line id="XMLID_214_" fill="none" stroke="#E3E3E3" stroke-width="2.6038" stroke-miterlimit="10" x1="1.3" y1="166" x2="76.7" y2="166"/>
	
		<line id="XMLID_215_" fill="none" stroke="#E3E3E3" stroke-width="2.6038" stroke-miterlimit="10" x1="1.3" y1="128.3" x2="76.7" y2="128.3"/>
	
		<line id="XMLID_249_" fill="none" stroke="#E3E3E3" stroke-width="2.6038" stroke-miterlimit="10" x1="1.3" y1="90.5" x2="76.7" y2="90.5"/>
	
		<line id="XMLID_212_" fill="none" stroke="#E3E3E3" stroke-width="2.6038" stroke-miterlimit="10" x1="25" y1="48.8" x2="25" y2="90.5"/>
	
		<line id="XMLID_330_" fill="none" stroke="#E3E3E3" stroke-width="2.6038" stroke-miterlimit="10" x1="55.6" y1="90.5" x2="55.6" y2="128.3"/>
	
		<line id="XMLID_262_" fill="none" stroke="#E3E3E3" stroke-width="2.6038" stroke-miterlimit="10" x1="25" y1="128.3" x2="25" y2="166"/>
	
		<line id="XMLID_261_" fill="none" stroke="#E3E3E3" stroke-width="2.6038" stroke-miterlimit="10" x1="55.6" y1="166" x2="55.6" y2="203.8"/>
	
		<line id="XMLID_264_" fill="none" stroke="#E3E3E3" stroke-width="2.6038" stroke-miterlimit="10" x1="25" y1="203.8" x2="25" y2="241.6"/>
	
		<line id="XMLID_263_" fill="none" stroke="#E3E3E3" stroke-width="2.6038" stroke-miterlimit="10" x1="55.6" y1="241.6" x2="55.6" y2="281.9"/>
	
		<line id="XMLID_265_" fill="none" stroke="#E3E3E3" stroke-width="2.6038" stroke-linejoin="round" stroke-miterlimit="10" x1="76.7" y1="90.5" x2="125.1" y2="43"/>
	
		<line id="XMLID_266_" fill="none" stroke="#E3E3E3" stroke-width="2.6038" stroke-linejoin="round" stroke-miterlimit="10" x1="76.7" y1="128.3" x2="125.1" y2="80.7"/>
	
		<line id="XMLID_267_" fill="none" stroke="#E3E3E3" stroke-width="2.6038" stroke-linejoin="round" stroke-miterlimit="10" x1="76.7" y1="166" x2="125.1" y2="118.5"/>
	
		<line id="XMLID_268_" fill="none" stroke="#E3E3E3" stroke-width="2.6038" stroke-linejoin="round" stroke-miterlimit="10" x1="76.7" y1="203.8" x2="125.1" y2="156.3"/>
	
		<line id="XMLID_269_" fill="none" stroke="#E3E3E3" stroke-width="2.6038" stroke-linejoin="round" stroke-miterlimit="10" x1="76.7" y1="241.6" x2="125.1" y2="194"/>
	
		<line id="XMLID_270_" fill="none" stroke="#E3E3E3" stroke-width="2.6038" stroke-linejoin="round" stroke-miterlimit="10" x1="92.1" y1="226.4" x2="92.1" y2="188.8"/>
	
		<line id="XMLID_273_" fill="none" stroke="#E3E3E3" stroke-width="2.6038" stroke-linejoin="round" stroke-miterlimit="10" x1="92.1" y1="150.8" x2="92.1" y2="113.2"/>
	
		<line id="XMLID_271_" fill="none" stroke="#E3E3E3" stroke-width="2.6038" stroke-linejoin="round" stroke-miterlimit="10" x1="108.4" y1="250.8" x2="108.4" y2="210.1"/>
	
		<line id="XMLID_272_" fill="none" stroke="#E3E3E3" stroke-width="2.6038" stroke-linejoin="round" stroke-miterlimit="10" x1="108.4" y1="172.7" x2="108.4" y2="134.9"/>
	
		<line id="XMLID_356_" fill="none" stroke="#E3E3E3" stroke-width="2.6038" stroke-linejoin="round" stroke-miterlimit="10" x1="92.1" y1="75.4" x2="92.1" y2="34"/>
	
		<line id="XMLID_355_" fill="none" stroke="#E3E3E3" stroke-width="2.6038" stroke-linejoin="round" stroke-miterlimit="10" x1="108.4" y1="97.1" x2="108.4" y2="59.4"/>
	
		<line id="XMLID_254_" fill="none" stroke="#E3E3E3" stroke-width="2.6038" stroke-linejoin="round" stroke-miterlimit="10" x1="25" y1="48.8" x2="76.8" y2="1.3"/>
	
		<line id="XMLID_357_" fill="none" stroke="#E3E3E3" stroke-width="2.6038" stroke-linejoin="round" stroke-miterlimit="10" x1="92.1" y1="34" x2="41.2" y2="34"/>
	
		<line id="XMLID_359_" fill="none" stroke="#E3E3E3" stroke-width="2.6038" stroke-linejoin="round" stroke-miterlimit="10" x1="53.8" y1="22.4" x2="30.2" y2="22.4"/>
</g>
</svg>
