<?xml version="1.0" encoding="utf-8"?>
<!-- Generator: Adobe Illustrator 19.0.0, SVG Export Plug-In . SVG Version: 6.00 Build 0)  -->
<svg version="1.1" id="Layer_1" xmlns="http://www.w3.org/2000/svg" xmlns:xlink="http://www.w3.org/1999/xlink" x="0px" y="0px"
	 viewBox="0 0 283.5 181.4" enable-background="new 0 0 283.5 181.4" xml:space="preserve">
<g id="XMLID_275_">
	<g id="XMLID_680_">
		<rect id="XMLID_21_" x="0.9" y="30" fill="#008BC7" width="255.3" height="150.5"/>
		<path id="XMLID_18_" fill="#8FD8F5" d="M255.3,30.9v148.8H1.7V30.9H255.3 M257,29.2H0v152.3h257V29.2L257,29.2z"/>
	</g>
	<g id="XMLID_76_">
		<polygon id="XMLID_27_" fill="#0070B1" points="1.6,28.4 26.7,0.7 281.8,0.7 256.7,28.4 		"/>
		<g id="XMLID_23_">
			<path id="XMLID_24_" fill="#8FD8F5" d="M280.2,1.4l-23.8,26.3H3.2L27.1,1.4H280.2 M283.5,0h-257L0,29.2h257L283.5,0L283.5,0z"/>
		</g>
	</g>
	<g id="XMLID_607_">
		<polygon id="XMLID_16_" fill="#0073B2" points="257.7,29.4 282.7,1.9 282.7,152 257.7,179.6 		"/>
		<path id="XMLID_13_" fill="#8FD8F5" d="M282,3.7v148l-23.6,26v-148L282,3.7 M283.5,0L257,29.2v152.3l26.4-29.2V0L283.5,0z"/>
	</g>
	<path id="XMLID_639_" fill="#EDEDED" stroke="#000000" stroke-width="0.71" stroke-linejoin="round" stroke-miterlimit="10" d="
		M115.9,109.1c0-10.5-5.9-19.7-14.5-24.3c2.2-3.1,3.4-7,3.4-11.1c0-10.8-8.7-19.5-19.5-19.5c-0.5,0-1.1,0-1.6,0.1
		C83,47,77,41.4,69.6,41.4c-6.1,0-11.3,3.8-13.3,9.2c-0.9-0.2-1.9-0.3-2.9-0.3c-9.5,0-17.1,7.7-17.1,17.1c0,4.4,1.7,8.5,4.5,11.5
		C31.2,85.6,25,96.6,25,109.1c0,10.4,4.3,19.8,11.2,26.5c-0.6,1.8-1,3.8-1,5.8c0,9.7,7.9,17.6,17.6,17.6c2.1,0,4-0.4,5.8-1
		c2.4,4.3,7.1,7.2,12.4,7.2c5.8,0,10.7-3.5,13-8.4c1.6,0.5,3.4,0.8,5.2,0.8c9.5,0,17.1-7.7,17.1-17.1c0-3.2-0.9-6.1-2.4-8.7
		C111.2,126.9,115.9,118.6,115.9,109.1z"/>
	
		<polygon id="XMLID_280_" fill="#008BC7" stroke="#000000" stroke-width="0.71" stroke-linejoin="round" stroke-miterlimit="10" points="
		63.4,101.8 45.3,101.8 45.3,93.3 32.1,106.8 45.3,120.1 45.3,111.5 63.4,111.5 	"/>
	<path id="XMLID_627_" fill="#008BC7" stroke="#000000" stroke-width="0.71" stroke-linejoin="round" stroke-miterlimit="10" d="
		M115.9,109.1c0-2.5-0.3-5-1-7.3h-20v-8.5l-13.3,13.5l13.3,13.3v-8.5h20.9C115.8,110.8,115.9,109.9,115.9,109.1z"/>
	
		<polygon id="XMLID_277_" fill="#008BC7" stroke="#000000" stroke-width="0.71" stroke-linejoin="round" stroke-miterlimit="10" points="
		82.8,80.4 70,67.6 76,61.6 57.1,61.7 57.1,80.5 63.1,74.5 75.9,87.2 	"/>
	
		<polygon id="XMLID_279_" fill="#008BC7" stroke="#000000" stroke-width="0.71" stroke-linejoin="round" stroke-miterlimit="10" points="
		82.8,133.2 70,146 76,152 57.1,151.8 57.1,133.1 63.1,139.1 75.9,126.3 	"/>
	<path id="XMLID_652_" fill="#EDEDED" stroke="#000000" stroke-width="0.71" stroke-linejoin="round" stroke-miterlimit="10" d="
		M141.1,109.1c0-10.5,5.9-19.7,14.5-24.3c-2.2-3.1-3.4-7-3.4-11.1c0-10.8,8.7-19.5,19.5-19.5c0.5,0,1.1,0,1.6,0.1
		c0.6-7.2,6.7-12.9,14.1-12.9c6.1,0,11.3,3.8,13.3,9.2c0.9-0.2,1.9-0.3,2.9-0.3c9.5,0,17.1,7.7,17.1,17.1c0,4.4-1.7,8.5-4.5,11.5
		c9.5,6.7,15.7,17.7,15.7,30.2c0,10.4-4.3,19.8-11.2,26.5c0.6,1.8,1,3.8,1,5.8c0,9.7-7.9,17.6-17.6,17.6c-2.1,0-4-0.4-5.8-1
		c-2.4,4.3-7.1,7.2-12.4,7.2c-5.8,0-10.7-3.5-13-8.4c-1.6,0.5-3.4,0.8-5.2,0.8c-9.5,0-17.1-7.7-17.1-17.1c0-3.2,0.9-6.1,2.4-8.7
		C145.9,126.9,141.1,118.6,141.1,109.1z"/>
	
		<polygon id="XMLID_628_" fill="#008BC7" stroke="#000000" stroke-width="0.71" stroke-linejoin="round" stroke-miterlimit="10" points="
		193.6,101.8 211.7,101.8 211.7,93.3 224.9,106.8 211.7,120.1 211.7,111.5 193.6,111.5 	"/>
	<path id="XMLID_598_" fill="#008BC7" stroke="#000000" stroke-width="0.71" stroke-linejoin="round" stroke-miterlimit="10" d="
		M141.1,109.1c0-2.5,0.3-5,1-7.3h20v-8.5l13.3,13.5l-13.3,13.3v-8.5h-20.9C141.2,110.8,141.1,109.9,141.1,109.1z"/>
	<path id="XMLID_659_" fill="#EDEDED" stroke="#000000" stroke-width="0.71" stroke-linejoin="round" stroke-miterlimit="10" d="
		M141.3,111.5c-0.1-0.8-0.1-1.6-0.1-2.4c0-2.5,0.3-5,1-7.3h-27.2c0.6,2.3,1,4.8,1,7.3c0,0.8,0,1.6-0.1,2.4H141.3z"/>
	
		<polygon id="XMLID_597_" fill="#008BC7" stroke="#000000" stroke-width="0.71" stroke-linejoin="round" stroke-miterlimit="10" points="
		174.3,80.4 187,67.6 181,61.6 199.9,61.7 199.9,80.5 193.9,74.5 181.1,87.2 	"/>
	
		<polygon id="XMLID_509_" fill="#008BC7" stroke="#000000" stroke-width="0.71" stroke-linejoin="round" stroke-miterlimit="10" points="
		174.3,133.2 187,146 181,152 199.9,151.8 199.9,133.1 193.9,139.1 181.1,126.3 	"/>
</g>
</svg>
