<?xml version="1.0" standalone="no"?>
<!DOCTYPE svg PUBLIC "-//W3C//DTD SVG 20010904//EN"
 "http://www.w3.org/TR/2001/REC-SVG-20010904/DTD/svg10.dtd">
<svg version="1.0" xmlns="http://www.w3.org/2000/svg"
 width="154.000000pt" height="92.000000pt" viewBox="0 0 154.000000 92.000000"
 preserveAspectRatio="xMidYMid meet">

<g transform="translate(0.000000,92.000000) scale(0.100000,-0.100000)"
fill="#000000" stroke="none">
<path d="M330 565 c0 -11 11 -15 40 -15 l40 0 0 -115 c0 -108 1 -115 20 -115
19 0 20 7 20 115 l0 115 35 0 c24 0 35 5 35 15 0 12 -17 15 -95 15 -78 0 -95
-3 -95 -15z"/>
<path d="M550 450 l0 -130 75 0 c60 0 75 3 75 15 0 12 -13 15 -55 15 l-55 0 0
45 0 45 50 0 c38 0 50 4 50 15 0 11 -12 15 -50 15 l-50 0 0 40 0 40 55 0 c42
0 55 3 55 15 0 12 -15 15 -75 15 l-75 0 0 -130z"/>
<path d="M760 515 l41 -64 -40 -60 c-23 -33 -41 -62 -41 -65 0 -4 10 -6 23 -6
16 0 30 14 52 50 l29 50 31 -50 c22 -37 36 -50 53 -50 26 0 24 4 -29 88 -28
44 -28 45 -10 71 9 14 28 43 40 64 l23 37 -24 0 c-18 0 -31 -12 -53 -50 l-29
-49 -28 49 c-22 39 -34 50 -53 50 l-25 0 40 -65z"/>
<path d="M940 565 c0 -10 11 -15 35 -15 l35 0 0 -115 c0 -108 1 -115 20 -115
19 0 20 7 20 115 l0 115 35 0 c24 0 35 5 35 15 0 12 -17 15 -90 15 -73 0 -90
-3 -90 -15z"/>
</g>
</svg>
