<?xml version="1.0" encoding="utf-8"?>
<!-- Generator: Adobe Illustrator 19.0.0, SVG Export Plug-In . SVG Version: 6.00 Build 0)  -->
<svg version="1.1" id="Layer_1" xmlns="http://www.w3.org/2000/svg" xmlns:xlink="http://www.w3.org/1999/xlink" x="0px" y="0px"
	 viewBox="0 0 282.5 283.5" enable-background="new 0 0 282.5 283.5" xml:space="preserve">
<g id="XMLID_393_">
	<g id="XMLID_390_">
		<g id="XMLID_529_">
			<rect id="XMLID_131_" x="0.5" y="18.6" fill="#008BC7" width="158.7" height="157"/>
			<path id="XMLID_128_" fill="#8FD8F5" d="M158.7,19.1v156.1H0.9V19.1H158.7 M159.6,18.2H0v158h159.6V18.2L159.6,18.2z"/>
		</g>
		<g id="XMLID_523_">
			<polygon id="XMLID_126_" fill="#0070B1" points="1.5,17.7 25.4,0.5 175.8,0.5 159.4,17.7 			"/>
			<path id="XMLID_123_" fill="#8FD8F5" d="M174.7,0.9l-15.5,16.3H2.9L25.6,0.9H174.7 M176.9,0H25.3L0,18.2h159.6L176.9,0L176.9,0z"
				/>
		</g>
		<g id="XMLID_517_">
			<polygon id="XMLID_121_" fill="#0073B2" points="160.1,18.4 176.4,1.2 176.4,157.8 160.1,175 			"/>
			<path id="XMLID_118_" fill="#8FD8F5" d="M176,2.3v155.3l-15.4,16.2V18.5L176,2.3 M176.9,0l-17.3,18.2v158l17.3-18.2V0L176.9,0z"
				/>
		</g>
		<g id="XMLID_391_">
			<g id="XMLID_511_">
				<path id="XMLID_116_" fill="#EDEDED" d="M77.3,67.2c-0.1,0-0.1-0.1-0.1-0.1v-28h-5.9c0,0-0.1,0-0.1-0.1c0,0,0-0.1,0-0.1
					l8.5-13.8c0,0,0.1-0.1,0.1-0.1c0,0,0,0,0,0c0,0,0.1,0,0.1,0.1l8.8,13.8c0,0,0,0.1,0,0.1s-0.1,0.1-0.1,0.1h-5.9v28
					c0,0.1-0.1,0.1-0.1,0.1H77.3z"/>
				<path id="XMLID_113_" d="M79.8,25.2L88.7,39h-6v28.1h-5.4V39h-6L79.8,25.2 M79.8,24.9C79.8,24.9,79.8,24.9,79.8,24.9
					c-0.1,0-0.2,0-0.2,0.1l-8.5,13.8c0,0.1,0,0.2,0,0.2c0,0.1,0.1,0.1,0.2,0.1h5.8v27.9c0,0.1,0.1,0.2,0.2,0.2h5.4
					c0.1,0,0.2-0.1,0.2-0.2V39.2h5.8c0.1,0,0.2,0,0.2-0.1c0-0.1,0-0.2,0-0.2L80,25C80,25,79.9,24.9,79.8,24.9L79.8,24.9z"/>
			</g>
			<g id="XMLID_505_">
				<path id="XMLID_111_" fill="#EDEDED" d="M56.8,77.8C56.7,77.8,56.7,77.8,56.8,77.8L36.9,58l-4.2,4.1c0,0-0.1,0-0.1,0
					c0,0,0,0,0,0c0,0-0.1,0-0.1-0.1l-3.8-15.8c0,0,0-0.1,0-0.1c0,0,0.1,0,0.1,0c0,0,16.1,3.5,16.1,3.5c0,0,0.1,0,0.1,0.1
					s0,0.1,0,0.1L40.9,54l19.8,19.8c0,0,0,0.1,0,0.2L56.8,77.8C56.8,77.8,56.8,77.8,56.8,77.8z"/>
				<path id="XMLID_108_" d="M28.9,46.2l16,3.5L40.7,54l19.9,19.9l-3.8,3.8L36.9,57.8L32.7,62L28.9,46.2 M28.9,46
					c-0.1,0-0.1,0-0.2,0.1c-0.1,0.1-0.1,0.1-0.1,0.2l3.8,15.8c0,0.1,0.1,0.1,0.2,0.2c0,0,0,0,0.1,0c0.1,0,0.1,0,0.2-0.1l4.1-4.1
					l19.7,19.7c0,0,0.1,0.1,0.2,0.1c0.1,0,0.1,0,0.2-0.1l3.8-3.8c0,0,0.1-0.1,0.1-0.2s0-0.1-0.1-0.2L41,54l4.1-4.1
					c0.1-0.1,0.1-0.1,0.1-0.2c0-0.1-0.1-0.1-0.2-0.2L28.9,46C28.9,46,28.9,46,28.9,46L28.9,46z"/>
			</g>
			<g id="XMLID_499_">
				<path id="XMLID_106_" fill="#EDEDED" d="M21.6,105.8C21.6,105.8,21.6,105.8,21.6,105.8L7.8,97.3c0,0-0.1-0.1-0.1-0.1
					c0,0,0-0.1,0.1-0.1l13.8-8.8c0,0,0,0,0.1,0c0,0,0,0,0.1,0c0,0,0.1,0.1,0.1,0.1v5.9h28c0.1,0,0.1,0.1,0.1,0.1v5.4
					c0,0.1-0.1,0.1-0.1,0.1h-28v5.9C21.8,105.7,21.7,105.7,21.6,105.8C21.7,105.8,21.7,105.8,21.6,105.8z"/>
				<path id="XMLID_103_" d="M21.6,88.3v6h28.1v5.4H21.6v6L7.8,97.2L21.6,88.3 M21.6,88.1c0,0-0.1,0-0.1,0L7.7,97
					c-0.1,0-0.1,0.1-0.1,0.2s0,0.2,0.1,0.2l13.8,8.5c0,0,0.1,0,0.1,0c0,0,0.1,0,0.1,0c0.1,0,0.1-0.1,0.1-0.2v-5.8h27.9
					c0.1,0,0.2-0.1,0.2-0.2v-5.4c0-0.1-0.1-0.2-0.2-0.2H21.9v-5.8c0-0.1,0-0.2-0.1-0.2C21.7,88.1,21.7,88.1,21.6,88.1L21.6,88.1z"/>
			</g>
			<g id="XMLID_493_">
				<path id="XMLID_101_" fill="#EDEDED" d="M28.9,148.2C28.9,148.2,28.8,148.2,28.9,148.2c-0.1-0.1-0.1-0.1-0.1-0.1l3.5-16
					c0,0,0-0.1,0.1-0.1c0,0,0,0,0,0c0,0,0.1,0,0.1,0l4.2,4.1l19.8-19.8c0,0,0.1,0,0.1,0s0.1,0,0.1,0l3.8,3.8c0,0,0,0.1,0,0.1
					s0,0.1,0,0.1l-19.8,19.8l4.1,4.1c0,0,0,0.1,0,0.1c0,0,0,0.1-0.1,0.1L28.9,148.2C28.9,148.2,28.9,148.2,28.9,148.2z"/>
				<path id="XMLID_98_" d="M56.5,116.4l3.8,3.8l-19.9,19.9l4.2,4.2l-15.8,3.8l3.5-16l4.2,4.2L56.5,116.4 M56.5,116.2
					c-0.1,0-0.1,0-0.2,0.1l-19.7,19.7l-4.1-4.1c0,0-0.1-0.1-0.2-0.1c0,0,0,0-0.1,0c-0.1,0-0.1,0.1-0.2,0.2l-3.5,16
					c0,0.1,0,0.2,0.1,0.2c0,0,0.1,0.1,0.2,0.1c0,0,0,0,0.1,0l15.8-3.8c0.1,0,0.1-0.1,0.2-0.2s0-0.2-0.1-0.2l-4.1-4.1l19.7-19.7
					c0.1-0.1,0.1-0.2,0-0.3l-3.8-3.8C56.6,116.2,56.6,116.2,56.5,116.2L56.5,116.2z"/>
			</g>
			<g id="XMLID_487_">
				<path id="XMLID_96_" fill="#EDEDED" d="M79.8,169.3C79.8,169.3,79.7,169.3,79.8,169.3l-8.9-13.9c0,0,0-0.1,0-0.1
					c0,0,0.1-0.1,0.1-0.1h5.9v-28c0-0.1,0.1-0.1,0.1-0.1h5.4c0.1,0,0.1,0.1,0.1,0.1v28h5.9c0,0,0.1,0,0.1,0.1c0,0,0,0.1,0,0.1
					L79.8,169.3C79.9,169.3,79.9,169.3,79.8,169.3C79.8,169.3,79.8,169.3,79.8,169.3z"/>
				<path id="XMLID_93_" d="M82.3,127.2v28.1h6l-8.5,13.8L71,155.3h6v-28.1H82.3 M82.3,127H77c-0.1,0-0.2,0.1-0.2,0.2v27.9H71
					c-0.1,0-0.2,0-0.2,0.1c0,0.1,0,0.2,0,0.2l8.8,13.8c0,0.1,0.1,0.1,0.2,0.1c0,0,0,0,0,0c0.1,0,0.2,0,0.2-0.1l8.5-13.8
					c0-0.1,0-0.2,0-0.2s-0.1-0.1-0.2-0.1h-5.8v-27.9C82.6,127.1,82.5,127,82.3,127L82.3,127z"/>
			</g>
			<g id="XMLID_481_">
				<path id="XMLID_91_" fill="#EDEDED" d="M114.7,144.7C114.6,144.6,114.6,144.6,114.7,144.7c-0.1-0.1-0.1-0.2-0.1-0.2l4.1-4.2
					L99,120.5c0,0,0-0.1,0-0.1s0-0.1,0-0.1l3.8-3.8c0,0,0.1,0,0.1,0s0.1,0,0.1,0l19.8,19.8l4.2-4.1c0,0,0.1,0,0.1,0c0,0,0,0,0,0
					c0,0,0.1,0,0.1,0.1l3.8,15.8c0,0,0,0.1,0,0.1c0,0-0.1,0-0.1,0C130.7,148.2,114.7,144.7,114.7,144.7z"/>
				<path id="XMLID_88_" d="M102.9,116.7l19.9,19.9l4.2-4.2l3.8,15.8l-16-3.5l4.2-4.2l-19.9-19.9L102.9,116.7 M102.9,116.4
					c-0.1,0-0.1,0-0.2,0.1l-3.8,3.8c0,0-0.1,0.1-0.1,0.2s0,0.1,0.1,0.2l19.7,19.7l-4.1,4.1c-0.1,0.1-0.1,0.1-0.1,0.2
					c0,0.1,0.1,0.1,0.2,0.2l16,3.5c0,0,0,0,0.1,0c0.1,0,0.1,0,0.2-0.1c0.1-0.1,0.1-0.1,0.1-0.2l-3.8-15.8c0-0.1-0.1-0.1-0.2-0.2
					c0,0,0,0-0.1,0c-0.1,0-0.1,0-0.2,0.1l-4.1,4.1L103,116.5C103,116.4,102.9,116.4,102.9,116.4L102.9,116.4z"/>
			</g>
			<g id="XMLID_475_">
				<path id="XMLID_86_" fill="#EDEDED" d="M138,106.1C138,106.1,137.9,106.1,138,106.1c-0.1,0-0.1-0.1-0.1-0.1v-5.9h-28
					c-0.1,0-0.1-0.1-0.1-0.1v-5.4c0-0.1,0.1-0.1,0.1-0.1h28v-5.9c0,0,0-0.1,0.1-0.1c0,0,0,0,0.1,0c0,0,0,0,0.1,0l13.8,8.5
					c0,0,0.1,0.1,0.1,0.1c0,0,0,0.1-0.1,0.1L138,106.1C138,106.1,138,106.1,138,106.1z"/>
				<path id="XMLID_83_" d="M138,88.7l13.8,8.5L138,106v-6h-28.1v-5.4H138V88.7 M138,88.4c0,0-0.1,0-0.1,0c-0.1,0-0.1,0.1-0.1,0.2
					v5.8h-27.9c-0.1,0-0.2,0.1-0.2,0.2v5.4c0,0.1,0.1,0.2,0.2,0.2h27.9v5.8c0,0.1,0,0.2,0.1,0.2c0,0,0.1,0,0.1,0c0,0,0.1,0,0.1,0
					l13.8-8.8c0.1,0,0.1-0.1,0.1-0.2c0-0.1,0-0.2-0.1-0.2l-13.8-8.5C138.1,88.4,138,88.4,138,88.4L138,88.4z"/>
			</g>
			<g id="XMLID_461_">
				<path id="XMLID_81_" fill="#EDEDED" d="M103.1,78C103.1,78,103,78,103.1,78l-3.9-3.8c0,0,0-0.1,0-0.2L119,54.2l-4.1-4.2
					c0,0,0-0.1,0-0.1c0,0,0-0.1,0.1-0.1c0,0,15.8-3.8,15.8-3.8c0,0,0.1,0,0.1,0c0,0,0,0.1,0,0.1l-3.5,16c0,0,0,0.1-0.1,0.1
					c0,0,0,0,0,0c0,0-0.1,0-0.1,0l-4.2-4.1L103.1,78C103.2,78,103.1,78,103.1,78z"/>
				<path id="XMLID_78_" d="M130.7,46.2l-3.5,16L123,58l-19.9,19.9l-3.8-3.8l19.9-19.9l-4.2-4.2L130.7,46.2 M130.7,46
					C130.7,46,130.7,46,130.7,46l-15.8,3.8c-0.1,0-0.1,0.1-0.2,0.2s0,0.2,0.1,0.2l4.1,4.1L99.1,73.9c-0.1,0.1-0.1,0.2,0,0.3l3.8,3.8
					c0,0,0.1,0.1,0.2,0.1s0.1,0,0.2-0.1L123,58.4l4.1,4.1c0,0,0.1,0.1,0.2,0.1c0,0,0,0,0.1,0c0.1,0,0.1-0.1,0.2-0.2l3.5-16
					c0-0.1,0-0.2-0.1-0.2C130.8,46,130.8,46,130.7,46L130.7,46z"/>
			</g>
			<g id="XMLID_392_">
				<path id="XMLID_76_" fill="#F12C00" d="M79.8,127.6c-16.8,0-30.5-13.7-30.5-30.5S63,66.7,79.8,66.7s30.5,13.7,30.5,30.5
					S96.6,127.6,79.8,127.6z"/>
				<path id="XMLID_73_" fill="#FFFFFF" d="M79.8,67.1c16.6,0,30,13.5,30,30c0,16.6-13.5,30-30,30s-30-13.5-30-30
					C49.8,80.6,63.3,67.1,79.8,67.1 M79.8,66.2c-17.1,0-31,13.9-31,31c0,17.1,13.9,31,31,31s31-13.9,31-31
					C110.8,80.1,96.9,66.2,79.8,66.2L79.8,66.2z"/>
			</g>
		</g>
	</g>
	<g id="XMLID_387_">
		<g id="XMLID_455_">
			<rect id="XMLID_71_" x="87" y="108.9" fill="#008BC7" width="175.8" height="174"/>
			<path id="XMLID_68_" fill="#8FD8F5" d="M262.3,109.5v173H87.5v-173H262.3 M263.3,108.4H86.4v175h176.9V108.4L263.3,108.4z"/>
		</g>
		<g id="XMLID_449_">
			<polygon id="XMLID_66_" fill="#0070B1" points="88.1,107.9 114.6,88.8 281.3,88.8 263.1,107.9 			"/>
			<path id="XMLID_63_" fill="#8FD8F5" d="M280,89.3l-17.2,18.1H89.7l25.1-18.1H280 M282.5,88.3h-168l-28,20.1h176.9L282.5,88.3
				L282.5,88.3z"/>
		</g>
		<g id="XMLID_443_">
			<polygon id="XMLID_61_" fill="#0073B2" points="263.8,108.6 281.9,89.6 281.9,263.1 263.8,282.2 			"/>
			<path id="XMLID_58_" fill="#8FD8F5" d="M281.4,90.9v172l-17.1,17.9v-172L281.4,90.9 M282.5,88.3l-19.1,20.1v175l19.1-20.1V88.3
				L282.5,88.3z"/>
		</g>
		<g id="XMLID_388_">
			<g id="XMLID_437_">
				<path id="XMLID_56_" fill="#EDEDED" d="M172.1,162.7c-0.1,0-0.1-0.1-0.1-0.1v-31h-6.5c0,0-0.1,0-0.1-0.1c0,0,0-0.1,0-0.1
					l9.4-15.3c0,0,0.1-0.1,0.1-0.1h0c0,0,0.1,0,0.1,0.1l9.8,15.3c0,0,0,0.1,0,0.1c0,0-0.1,0.1-0.1,0.1h-6.5v31
					c0,0.1-0.1,0.1-0.1,0.1H172.1z"/>
				<path id="XMLID_53_" d="M174.9,116.2l9.8,15.3H178v31.1h-5.9v-31.1h-6.6L174.9,116.2 M174.9,115.9
					C174.9,115.9,174.9,115.9,174.9,115.9c-0.1,0-0.2,0-0.2,0.1l-9.4,15.3c0,0.1-0.1,0.2,0,0.3s0.1,0.1,0.2,0.1h6.4v30.9
					c0,0.1,0.1,0.3,0.3,0.3h5.9c0.1,0,0.3-0.1,0.3-0.3v-30.9h6.4c0.1,0,0.2-0.1,0.2-0.1c0-0.1,0-0.2,0-0.3l-9.8-15.3
					C175.1,115.9,175,115.9,174.9,115.9L174.9,115.9z"/>
			</g>
			<g id="XMLID_431_">
				<path id="XMLID_51_" fill="#EDEDED" d="M149.3,174.5C149.3,174.5,149.3,174.5,149.3,174.5l-22-22l-4.6,4.6c0,0-0.1,0-0.1,0
					c0,0,0,0,0,0c0,0-0.1,0-0.1-0.1l-4.2-17.5c0,0,0-0.1,0-0.1c0,0,0.1,0,0.1,0c0,0,17.8,3.9,17.8,3.9c0,0,0.1,0,0.1,0.1
					c0,0,0,0.1,0,0.1l-4.6,4.6l21.9,21.9c0,0,0,0.1,0,0.1s0,0.1,0,0.1L149.3,174.5C149.4,174.5,149.4,174.5,149.3,174.5z"/>
				<path id="XMLID_48_" d="M118.5,139.5l17.8,3.9l-4.7,4.7l22,22l-4.2,4.2l-22-22l-4.7,4.7L118.5,139.5 M118.5,139.3
					c-0.1,0-0.1,0-0.2,0.1c-0.1,0.1-0.1,0.2-0.1,0.2l4.2,17.5c0,0.1,0.1,0.2,0.2,0.2c0,0,0,0,0.1,0c0.1,0,0.1,0,0.2-0.1l4.5-4.5
					l21.8,21.8c0.1,0.1,0.1,0.1,0.2,0.1s0.1,0,0.2-0.1l4.2-4.2c0,0,0.1-0.1,0.1-0.2s0-0.1-0.1-0.2l-21.8-21.8l4.5-4.5
					c0.1-0.1,0.1-0.2,0.1-0.3c0-0.1-0.1-0.2-0.2-0.2L118.5,139.3C118.5,139.3,118.5,139.3,118.5,139.3L118.5,139.3z"/>
			</g>
			<g id="XMLID_425_">
				<path id="XMLID_46_" fill="#EDEDED" d="M110.4,205.5C110.4,205.5,110.4,205.5,110.4,205.5L95,196.1c0,0-0.1-0.1-0.1-0.1
					c0,0,0-0.1,0.1-0.1l15.3-9.8c0,0,0,0,0.1,0c0,0,0,0,0.1,0c0,0,0.1,0.1,0.1,0.1v6.5h31c0.1,0,0.1,0.1,0.1,0.1v5.9
					c0,0.1-0.1,0.1-0.1,0.1h-31v6.5C110.6,205.4,110.5,205.5,110.4,205.5C110.5,205.5,110.4,205.5,110.4,205.5z"/>
				<path id="XMLID_43_" d="M110.4,186.1v6.6h31.1v5.9h-31.1v6.6l-15.3-9.4L110.4,186.1 M110.4,185.9c0,0-0.1,0-0.1,0L95,195.7
					c-0.1,0-0.1,0.1-0.1,0.2s0,0.2,0.1,0.2l15.3,9.4c0,0,0.1,0,0.1,0c0,0,0.1,0,0.1,0c0.1,0,0.1-0.1,0.1-0.2V199h30.9
					c0.1,0,0.3-0.1,0.3-0.3v-5.9c0-0.1-0.1-0.3-0.3-0.3h-30.9v-6.4c0-0.1-0.1-0.2-0.1-0.2C110.5,185.9,110.5,185.9,110.4,185.9
					L110.4,185.9z"/>
			</g>
			<g id="XMLID_419_">
				<path id="XMLID_41_" fill="#EDEDED" d="M118.5,252.5C118.4,252.5,118.4,252.5,118.5,252.5c-0.1-0.1-0.1-0.1-0.1-0.2l3.9-17.8
					c0,0,0-0.1,0.1-0.1c0,0,0,0,0,0c0,0,0.1,0,0.1,0l4.6,4.6l21.9-21.9c0,0,0.1,0,0.1,0s0.1,0,0.1,0l4.2,4.2c0.1,0.1,0.1,0.1,0,0.2
					l-21.9,21.9l4.6,4.6c0,0,0,0.1,0,0.1c0,0,0,0.1-0.1,0.1L118.5,252.5C118.5,252.5,118.5,252.5,118.5,252.5z"/>
				<path id="XMLID_38_" d="M149.1,217.3l4.2,4.2l-22,22l4.7,4.7l-17.5,4.2l3.9-17.8l4.7,4.7L149.1,217.3 M149.1,217
					c-0.1,0-0.1,0-0.2,0.1l-21.8,21.8l-4.5-4.5c0,0-0.1-0.1-0.2-0.1c0,0,0,0-0.1,0c-0.1,0-0.2,0.1-0.2,0.2l-3.9,17.8
					c0,0.1,0,0.2,0.1,0.2c0,0,0.1,0.1,0.2,0.1c0,0,0,0,0.1,0l17.5-4.2c0.1,0,0.2-0.1,0.2-0.2c0-0.1,0-0.2-0.1-0.3l-4.5-4.5
					l21.8-21.8c0,0,0.1-0.1,0.1-0.2s0-0.1-0.1-0.2l-4.2-4.2C149.2,217,149.1,217,149.1,217L149.1,217z"/>
			</g>
			<g id="XMLID_413_">
				<path id="XMLID_36_" fill="#EDEDED" d="M174.9,275.9c0,0-0.1,0-0.1-0.1l-9.8-15.3c0,0,0-0.1,0-0.1c0,0,0.1-0.1,0.1-0.1h6.5v-31
					c0-0.1,0.1-0.1,0.1-0.1h5.9c0.1,0,0.1,0.1,0.1,0.1v31h6.5c0,0,0.1,0,0.1,0.1c0,0,0,0.1,0,0.1l-9.4,15.3
					C175,275.8,174.9,275.9,174.9,275.9L174.9,275.9z"/>
				<path id="XMLID_33_" d="M177.7,229.3v31.1h6.6l-9.4,15.3l-9.8-15.3h6.6v-31.1H177.7 M177.7,229h-5.9c-0.1,0-0.3,0.1-0.3,0.3
					v30.9h-6.4c-0.1,0-0.2,0.1-0.2,0.1c0,0.1,0,0.2,0,0.3l9.8,15.3c0,0.1,0.1,0.1,0.2,0.1c0,0,0,0,0,0c0.1,0,0.2,0,0.2-0.1l9.4-15.3
					c0-0.1,0.1-0.2,0-0.3s-0.1-0.1-0.2-0.1h-6.4v-30.9C177.9,229.1,177.8,229,177.7,229L177.7,229z"/>
			</g>
			<g id="XMLID_407_">
				<path id="XMLID_31_" fill="#EDEDED" d="M231.3,252.5l-17.8-3.9c0,0-0.1,0-0.1-0.1c0,0,0-0.1,0-0.1l4.6-4.6l-21.9-21.9
					c0,0,0-0.1,0-0.1s0-0.1,0-0.1l4.2-4.2c0,0,0.1,0,0.1,0s0.1,0,0.1,0l21.9,21.9l4.6-4.6c0,0,0.1,0,0.1,0c0,0,0,0,0,0
					c0,0,0.1,0,0.1,0.1l4.2,17.5c0,0,0,0.1,0,0.1C231.4,252.5,231.3,252.5,231.3,252.5C231.3,252.5,231.3,252.5,231.3,252.5z"/>
				<path id="XMLID_28_" d="M200.4,217.5l22,22l4.7-4.7l4.2,17.5l-17.8-3.9l4.7-4.7l-22-22L200.4,217.5 M200.4,217.3
					c-0.1,0-0.1,0-0.2,0.1l-4.2,4.2c0,0-0.1,0.1-0.1,0.2s0,0.1,0.1,0.2l21.8,21.8l-4.5,4.5c-0.1,0.1-0.1,0.2-0.1,0.3
					c0,0.1,0.1,0.2,0.2,0.2l17.8,3.9c0,0,0,0,0.1,0c0.1,0,0.1,0,0.2-0.1c0.1-0.1,0.1-0.2,0.1-0.2l-4.2-17.5c0-0.1-0.1-0.2-0.2-0.2
					c0,0,0,0-0.1,0c-0.1,0-0.1,0-0.2,0.1l-4.5,4.5l-21.8-21.8C200.6,217.3,200.5,217.3,200.4,217.3L200.4,217.3z"/>
			</g>
			<g id="XMLID_401_">
				<path id="XMLID_26_" fill="#EDEDED" d="M239.3,205.9C239.3,205.9,239.3,205.9,239.3,205.9c-0.1,0-0.1-0.1-0.1-0.1v-6.5h-31
					c-0.1,0-0.1-0.1-0.1-0.1v-5.9c0-0.1,0.1-0.1,0.1-0.1h31v-6.5c0,0,0-0.1,0.1-0.1c0,0,0,0,0.1,0c0,0,0,0,0.1,0l15.3,9.4
					c0,0,0.1,0.1,0.1,0.1c0,0,0,0.1-0.1,0.1L239.3,205.9C239.4,205.9,239.4,205.9,239.3,205.9z"/>
				<path id="XMLID_23_" d="M239.3,186.5l15.3,9.4l-15.3,9.8v-6.6h-31.1v-5.9h31.1V186.5 M239.3,186.3c0,0-0.1,0-0.1,0
					c-0.1,0-0.1,0.1-0.1,0.2v6.4h-30.9c-0.1,0-0.3,0.1-0.3,0.3v5.9c0,0.1,0.1,0.3,0.3,0.3h30.9v6.4c0,0.1,0.1,0.2,0.1,0.2
					c0,0,0.1,0,0.1,0c0,0,0.1,0,0.1,0l15.3-9.8c0.1,0,0.1-0.1,0.1-0.2c0-0.1,0-0.2-0.1-0.2l-15.3-9.4
					C239.4,186.3,239.4,186.3,239.3,186.3L239.3,186.3z"/>
			</g>
			<g id="XMLID_395_">
				<path id="XMLID_21_" fill="#EDEDED" d="M200.7,174.7C200.7,174.7,200.6,174.7,200.7,174.7l-4.3-4.2c-0.1-0.1-0.1-0.1,0-0.2
					l21.9-21.9l-4.6-4.6c0,0,0-0.1,0-0.1s0-0.1,0.1-0.1l17.5-4.2c0,0,0,0,0,0c0,0,0.1,0,0.1,0c0,0,0,0.1,0,0.1l-3.9,17.8
					c0,0,0,0.1-0.1,0.1c0,0,0,0,0,0c0,0-0.1,0-0.1,0l-4.6-4.6L200.7,174.7C200.8,174.7,200.7,174.7,200.7,174.7z"/>
				<path id="XMLID_18_" d="M231.3,139.5l-3.9,17.8l-4.7-4.7l-22,22l-4.2-4.2l22-22l-4.7-4.7L231.3,139.5 M231.3,139.3
					C231.3,139.3,231.3,139.3,231.3,139.3l-17.6,4.2c-0.1,0-0.2,0.1-0.2,0.2c0,0.1,0,0.2,0.1,0.3l4.5,4.5l-21.8,21.8
					c-0.1,0.1-0.1,0.3,0,0.4l4.2,4.2c0,0,0.1,0.1,0.2,0.1s0.1,0,0.2-0.1l21.8-21.8l4.5,4.5c0,0,0.1,0.1,0.2,0.1c0,0,0,0,0.1,0
					c0.1,0,0.2-0.1,0.2-0.2l3.9-17.8c0-0.1,0-0.2-0.1-0.2C231.4,139.3,231.4,139.3,231.3,139.3L231.3,139.3z"/>
			</g>
			<g id="XMLID_389_">
				<path id="XMLID_16_" fill="#F12C00" d="M174.9,229.7c-18.6,0-33.8-15.2-33.8-33.8s15.2-33.8,33.8-33.8s33.8,15.2,33.8,33.8
					S193.5,229.7,174.9,229.7z"/>
				<path id="XMLID_13_" fill="#FFFFFF" d="M174.9,162.7c18.3,0,33.3,14.9,33.3,33.3s-14.9,33.3-33.3,33.3s-33.3-14.9-33.3-33.3
					S156.5,162.7,174.9,162.7 M174.9,161.6c-18.9,0-34.3,15.4-34.3,34.3c0,18.9,15.4,34.3,34.3,34.3s34.3-15.4,34.3-34.3
					C209.2,177,193.8,161.6,174.9,161.6L174.9,161.6z"/>
			</g>
		</g>
	</g>
	
		<polyline id="XMLID_394_" fill="none" stroke="#919191" stroke-width="10.6426" stroke-linecap="round" stroke-linejoin="round" stroke-miterlimit="10" points="
		236,95.5 236,51.9 171.1,51.9 	"/>
	
		<polyline id="XMLID_386_" fill="none" stroke="#919191" stroke-width="10.6426" stroke-linejoin="round" stroke-miterlimit="10" points="
		35.4,176.1 35.4,252.5 86.4,252.5 	"/>
</g>
</svg>
