<?xml version="1.0" encoding="utf-8"?>
<!-- Generator: Adobe Illustrator 19.0.0, SVG Export Plug-In . SVG Version: 6.00 Build 0)  -->
<svg version="1.1" id="Layer_1" xmlns="http://www.w3.org/2000/svg" xmlns:xlink="http://www.w3.org/1999/xlink" x="0px" y="0px"
	 viewBox="0 0 173.8 283.5" enable-background="new 0 0 173.8 283.5" xml:space="preserve">
<g id="XMLID_577_">
	<g id="XMLID_549_">
		<linearGradient id="XMLID_61_" gradientUnits="userSpaceOnUse" x1="31.1516" y1="-0.7145" x2="207.1383" y2="208.6292">
			<stop  offset="0" style="stop-color:#125C88"/>
			<stop  offset="0.1661" style="stop-color:#2075AB"/>
			<stop  offset="0.33" style="stop-color:#7AB6EA"/>
			<stop  offset="0.5806" style="stop-color:#2075AB"/>
			<stop  offset="0.9462" style="stop-color:#125C88"/>
		</linearGradient>
		<path id="XMLID_31_" fill="url(#XMLID_61_)" d="M74.1,148.3L4.1,34.8C8,31.6,41.5,3.7,43.3,2.1c1.7-1.5,5.2-1.6,5.3-1.6H164
			c8.4,0,9.3,9,9.3,9.4l0,231.4c0,4.1-3.1,6.9-3.1,6.9l-38.7,32.4L74.1,148.3z"/>
		<path id="XMLID_28_" fill="#125C88" d="M164,1c7.8,0,8.8,8.2,8.8,8.9v231.4c0,3.9-2.9,6.5-2.9,6.5l-38.2,31.9L74.5,148.1l0-0.1
			l0-0.1L4.7,35C9.9,30.6,41.9,4,43.6,2.5c1.3-1.2,4-1.5,4.9-1.5H164 M164,0C155,0,48.6,0,48.6,0S44.8,0.1,43,1.8
			c-1.9,1.7-39.6,33-39.6,33l70.2,113.7l57.7,132.9l39.3-32.8c0,0,3.3-2.9,3.3-7.3s0-231.5,0-231.5S173,0,164,0L164,0z"/>
	</g>
	<g id="XMLID_285_">
		<path id="XMLID_26_" fill="#2E8ECE" d="M9.8,283c-5.1,0-9.3-4.2-9.3-9.3V42.2c0-5.1,4.2-9.3,9.3-9.3h115.4c5.1,0,9.3,4.2,9.3,9.3
			v231.5c0,5.1-4.2,9.3-9.3,9.3H9.8z"/>
		<path id="XMLID_23_" fill="#125982" d="M125.3,33.4c4.9,0,8.8,4,8.8,8.8v231.5c0,4.9-4,8.8-8.8,8.8H9.8c-4.9,0-8.8-4-8.8-8.8V42.2
			c0-4.9,4-8.8,8.8-8.8H125.3 M125.3,32.4H9.8c-5.4,0-9.8,4.4-9.8,9.8v231.5c0,5.4,4.4,9.8,9.8,9.8h115.4c5.4,0,9.8-4.4,9.8-9.8
			V42.2C135.1,36.8,130.7,32.4,125.3,32.4L125.3,32.4z"/>
	</g>
	<g id="XMLID_284_">
		<g id="XMLID_603_">
			<rect id="XMLID_21_" x="18.8" y="55.7" fill="#2E8ECE" width="97.5" height="57.8"/>
			<path id="XMLID_18_" fill="#FFFFFF" d="M112.8,59.2v51H22.2v-51H112.8 M119.7,52.3H15.4V117h104.3V52.3L119.7,52.3z"/>
		</g>
		
			<line id="XMLID_602_" fill="none" stroke="#FFFFFF" stroke-width="6.6722" stroke-miterlimit="10" x1="18.4" y1="84.7" x2="116.7" y2="84.7"/>
		
			<line id="XMLID_600_" fill="none" stroke="#FFFFFF" stroke-width="6.872" stroke-miterlimit="10" x1="15.4" y1="263.5" x2="119.7" y2="263.5"/>
		<g id="XMLID_572_">
			<path id="XMLID_16_" fill="#2E8ECE" d="M68,222.6c-8.1,0-14.7-6.6-14.7-14.7s6.6-14.7,14.7-14.7s14.7,6.6,14.7,14.7
				S76.1,222.6,68,222.6z"/>
			<path id="XMLID_13_" fill="#FFFFFF" d="M68,196.6c6.2,0,11.3,5.1,11.3,11.3c0,6.2-5.1,11.3-11.3,11.3s-11.3-5.1-11.3-11.3
				C56.7,201.7,61.8,196.6,68,196.6 M68,189.8c-10,0-18.1,8.1-18.1,18.1c0,10,8.1,18.1,18.1,18.1c10,0,18.1-8.1,18.1-18.1
				C86.1,197.9,78,189.8,68,189.8L68,189.8z"/>
		</g>
	</g>
</g>
</svg>
