<?xml version="1.0" encoding="utf-8"?>
<!-- Generator: Adobe Illustrator 19.0.0, SVG Export Plug-In . SVG Version: 6.00 Build 0)  -->
<svg version="1.1" id="Layer_1" xmlns="http://www.w3.org/2000/svg" xmlns:xlink="http://www.w3.org/1999/xlink" x="0px" y="0px"
	 viewBox="0 0 283.5 282.2" enable-background="new 0 0 283.5 282.2" xml:space="preserve">
<g id="XMLID_397_">
	<g id="XMLID_713_">
		<rect id="XMLID_31_" x="0.7" y="29.9" fill="#008BC7" width="254.3" height="251.6"/>
		<path id="XMLID_28_" fill="#8FD8F5" d="M254.3,30.6v250.1H1.5V30.6H254.3 M255.8,29.1H0v253.1h255.8V29.1L255.8,29.1z"/>
	</g>
	<g id="XMLID_707_">
		<polygon id="XMLID_26_" fill="#0070B1" points="2.3,28.4 40.7,0.7 281.7,0.7 255.5,28.4 		"/>
		<path id="XMLID_23_" fill="#8FD8F5" d="M280,1.5l-24.8,26.1H4.7L41,1.5H280 M283.5,0h-243L0,29.1h255.8L283.5,0L283.5,0z"/>
	</g>
	<g id="XMLID_701_">
		<polygon id="XMLID_21_" fill="#0073B2" points="256.5,29.4 282.7,1.9 282.7,252.8 256.5,280.4 		"/>
		<path id="XMLID_18_" fill="#8FD8F5" d="M282,3.8v248.8l-24.7,26V29.7L282,3.8 M283.5,0l-27.7,29.1v253.1l27.7-29.1V0L283.5,0z"/>
	</g>
	<g id="XMLID_720_">
		<path id="XMLID_16_" fill="#EDEDED" d="M43,265.9c-0.1,0-0.1,0-0.2-0.1L12,235c-0.1-0.1-0.1-0.1-0.1-0.2c0-0.1,0-0.2,0.1-0.2
			c11.2-10.4,30.2-27.9,31-27.9c0.2,0,0.3,0.1,0.3,0.3v20.5h39.3l35.6-72L83,83.8H43.3v20.5c0,0.1-0.1,0.2-0.2,0.3c0,0-0.1,0-0.1,0
			c-0.1,0-0.1,0-0.2-0.1L12,73.8C12,73.7,12,73.6,12,73.6c0-0.1,0-0.2,0.1-0.2c11.2-10.4,30.2-27.9,31-27.9c0.2,0,0.3,0.1,0.3,0.3
			v20.5h49.9c0.1,0,0.2,0.1,0.3,0.2l34.4,69.6l34.4-69.6c0-0.1,0.1-0.2,0.3-0.2h49.9V45.7c0-0.2,0.1-0.3,0.3-0.3
			c0.8,0,19.7,17.5,31,27.9c0.1,0.1,0.1,0.1,0.1,0.2c0,0.1,0,0.2-0.1,0.2L213,104.5c-0.1,0.1-0.1,0.1-0.2,0.1c0,0-0.1,0-0.1,0
			c-0.1,0-0.2-0.1-0.2-0.3V83.8h-39.6l-35.3,71.7l35.6,72h39.3V207c0-0.2,0.1-0.3,0.3-0.3c0.8,0,19.7,17.5,31,27.9
			c0.1,0.1,0.1,0.1,0.1,0.2c0,0.1,0,0.2-0.1,0.2L213,265.8c-0.1,0.1-0.1,0.1-0.2,0.1c0,0-0.1,0-0.1,0c-0.1,0-0.2-0.1-0.2-0.3v-20.5
			h-49.9c0,0-0.1,0-0.1,0c-0.1,0-0.2-0.1-0.2-0.2l-34.4-69.9L93.5,245c0,0.1-0.1,0.2-0.2,0.2c0,0,0,0,0,0c0,0-0.1,0-0.1,0H43.3v20.5
			c0,0.1-0.1,0.2-0.2,0.3C43.1,265.9,43.1,265.9,43,265.9z"/>
		<path id="XMLID_13_" d="M212.8,45.7c0.8,0,30.8,27.8,30.8,27.8l-30.8,30.8V83.6h-40.1l-35.4,71.9l35.7,72.3h39.8V207c0,0,0,0,0,0
			c0.8,0,30.8,27.8,30.8,27.8l-30.8,30.8v-20.8h-50.2l0,0l-34.7-70.4l-34.7,70.4l0,0H43v20.8l-30.8-30.8c0,0,30-27.8,30.8-27.8
			c0,0,0,0,0,0v20.8h39.8l35.7-72.3L83.1,83.6H43v20.8L12.2,73.6c0,0,30-27.8,30.8-27.8c0,0,0,0,0,0v20.8h50.2l34.7,70.1l34.7-70.1
			h50.2L212.8,45.7C212.8,45.7,212.8,45.7,212.8,45.7 M43,45.2c-0.3,0-1,0-31.1,28c-0.1,0.1-0.2,0.3-0.2,0.4c0,0.2,0.1,0.3,0.2,0.4
			l30.8,30.8c0.1,0.1,0.3,0.2,0.4,0.2c0.1,0,0.1,0,0.2,0c0.2-0.1,0.4-0.3,0.4-0.5V84.1h39.2l35.1,71.4l-35.5,71.7H43.6V207
			c0-0.3-0.3-0.6-0.6-0.6c0,0,0,0,0,0c-0.3,0-1,0-31.1,28c-0.1,0.1-0.2,0.3-0.2,0.4c0,0.2,0.1,0.3,0.2,0.4L42.6,266
			c0.1,0.1,0.3,0.2,0.4,0.2c0.1,0,0.1,0,0.2,0c0.2-0.1,0.4-0.3,0.4-0.5v-20.2h49.5c0,0,0.1,0,0.1,0c0,0,0,0,0,0
			c0.2,0,0.4-0.1,0.5-0.3l34.2-69.4l34.2,69.4c0.1,0.2,0.3,0.3,0.5,0.3c0,0,0,0,0,0c0,0,0.1,0,0.1,0h49.5v20.2
			c0,0.2,0.1,0.4,0.4,0.5c0.1,0,0.1,0,0.2,0c0.1,0,0.3-0.1,0.4-0.2l30.8-30.8c0.1-0.1,0.2-0.3,0.2-0.4c0-0.2-0.1-0.3-0.2-0.4
			c-30.2-28-30.9-28-31.2-28c-0.2,0-0.3,0.1-0.4,0.2c-0.1,0.1-0.2,0.3-0.2,0.4v20.2h-38.9l-35.5-71.7L173,84.1h39.2v20.2
			c0,0.2,0.1,0.4,0.4,0.5c0.1,0,0.1,0,0.2,0c0.1,0,0.3-0.1,0.4-0.2L243.9,74c0.1-0.1,0.2-0.3,0.2-0.4c0-0.2-0.1-0.3-0.2-0.4
			c-0.1-0.1-7.6-7-15.1-13.9c-15.4-14.1-15.7-14.1-16.1-14.1c0,0,0,0,0,0c-0.3,0-0.6,0.3-0.6,0.6v20.2h-49.6c-0.2,0-0.4,0.1-0.5,0.3
			l-34.2,69.1L93.7,66.3c-0.1-0.2-0.3-0.3-0.5-0.3H43.6V45.7C43.6,45.4,43.3,45.2,43,45.2C43,45.2,43,45.2,43,45.2L43,45.2z"/>
	</g>
</g>
</svg>
