<?xml version="1.0" encoding="utf-8"?>
<!-- Generator: Adobe Illustrator 19.0.0, SVG Export Plug-In . SVG Version: 6.00 Build 0)  -->
<svg version="1.1" id="Layer_1" xmlns="http://www.w3.org/2000/svg" xmlns:xlink="http://www.w3.org/1999/xlink" x="0px" y="0px"
	 viewBox="0 0 283.5 282.2" enable-background="new 0 0 283.5 282.2" xml:space="preserve">
<g id="XMLID_117_">
	<g id="XMLID_69_">
		<rect id="XMLID_50_" x="0.7" y="29.9" fill="#008BC7" width="254.3" height="251.6"/>
		<path id="XMLID_47_" fill="#8FD8F5" d="M254.3,30.6v250.1H1.5V30.6H254.3 M255.8,29.1H0v253.1h255.8V29.1L255.8,29.1z"/>
	</g>
	<g id="XMLID_72_">
		<polygon id="XMLID_45_" fill="#0070B1" points="2.3,28.4 40.7,0.7 281.7,0.7 255.5,28.4 		"/>
		<path id="XMLID_42_" fill="#8FD8F5" d="M280,1.5l-24.8,26.1H4.7L41,1.5H280 M283.5,0h-243L0,29.1h255.8L283.5,0L283.5,0z"/>
	</g>
	<g id="XMLID_70_">
		<polygon id="XMLID_40_" fill="#0073B2" points="256.5,29.4 282.7,1.9 282.7,252.8 256.5,280.4 		"/>
		<path id="XMLID_37_" fill="#8FD8F5" d="M282,3.8v248.8l-24.7,26V29.7L282,3.8 M283.5,0l-27.7,29.1v253.1l27.7-29.1V0L283.5,0z"/>
	</g>
	<g id="XMLID_74_">
		<path id="XMLID_33_" fill="#8FD8F5" d="M232.4,55.1v201.1h-209V55.1H232.4 M235.4,52.1h-215v207.1h215V52.1L235.4,52.1z"/>
	</g>
	<g id="XMLID_86_">
		
			<ellipse id="XMLID_77_" fill="#0070B1" stroke="#8FD8F5" stroke-width="2.6476" stroke-miterlimit="10" cx="127.9" cy="131.4" rx="88.6" ry="36.2"/>
		<path id="XMLID_89_" fill="#0081BA" stroke="#8FD8F5" stroke-width="2.6476" stroke-miterlimit="10" d="M39.3,179.9v-48.5
			c0,20,39.7,36.2,88.6,36.2s88.6-16.2,88.6-36.2v48.5c0,20-39.7,36.2-88.6,36.2S39.3,199.9,39.3,179.9z"/>
		<g id="XMLID_119_">
			<path id="XMLID_31_" fill="#EDEDED" d="M90.1,134.8c-0.1,0-0.3-0.1-0.3-0.2c-0.1-0.1-0.1-0.3,0.1-0.4l4.3-4.5l-40-6.5
				c-0.1,0-0.3-0.1-0.3-0.2c0-0.1,0-0.3,0.1-0.4l8.6-9.1c0.1-0.1,0.2-0.1,0.3-0.1c0,0,0,0,0.1,0l40.5,6.7l4.1-4.3
				c0.1-0.1,0.2-0.1,0.3-0.1c0,0,0,0,0.1,0c0.1,0,0.2,0.1,0.3,0.2l6.3,14.2c0,0.1,0,0.2,0,0.3c-0.1,0.1-0.2,0.2-0.3,0.2L90.1,134.8
				C90.2,134.8,90.1,134.8,90.1,134.8z"/>
			<path id="XMLID_28_" d="M62.8,113.6l40.7,6.7l4.3-4.5l6.3,14.2l-23.9,4.3l4.8-5.1l-40.7-6.6L62.8,113.6 M62.8,112.9
				c-0.2,0-0.4,0.1-0.5,0.2l-8.6,9.1c-0.2,0.2-0.3,0.5-0.2,0.8c0.1,0.3,0.3,0.5,0.6,0.5l39.3,6.4l-3.8,4c-0.2,0.2-0.3,0.6-0.1,0.9
				c0.1,0.2,0.4,0.4,0.7,0.4c0,0,0.1,0,0.1,0l23.9-4.3c0.2,0,0.4-0.2,0.5-0.4s0.1-0.4,0-0.7l-6.3-14.2c-0.1-0.2-0.3-0.4-0.6-0.4
				c0,0-0.1,0-0.1,0c-0.2,0-0.4,0.1-0.5,0.2l-4,4.2l-40.3-6.6C62.9,112.9,62.8,112.9,62.8,112.9L62.8,112.9z"/>
		</g>
		<g id="XMLID_84_">
			<path id="XMLID_26_" fill="#EDEDED" d="M191.4,148l-40.5-6.7l-4.1,4.3c-0.1,0.1-0.2,0.1-0.3,0.1c0,0,0,0-0.1,0
				c-0.1,0-0.2-0.1-0.3-0.2l-6.3-14.2c0-0.1,0-0.2,0-0.3c0.1-0.1,0.2-0.2,0.3-0.2l23.9-4.3c0,0,0,0,0.1,0c0.1,0,0.3,0.1,0.3,0.2
				c0.1,0.1,0.1,0.3-0.1,0.4l-4.3,4.5l40,6.5c0.1,0,0.3,0.1,0.3,0.2c0,0.1,0,0.3-0.1,0.4l-8.6,9.1C191.6,148,191.5,148,191.4,148
				C191.4,148,191.4,148,191.4,148z"/>
			<path id="XMLID_23_" d="M164.1,126.9l-4.8,5.1l40.7,6.6l-8.6,9.1l-40.7-6.7l-4.3,4.5l-6.3-14.2L164.1,126.9 M164.1,126.1
				c0,0-0.1,0-0.1,0l-23.9,4.3c-0.2,0-0.4,0.2-0.5,0.4s-0.1,0.4,0,0.7l6.3,14.2c0.1,0.2,0.3,0.4,0.6,0.4c0,0,0.1,0,0.1,0
				c0.2,0,0.4-0.1,0.5-0.2l4-4.2l40.3,6.6c0,0,0.1,0,0.1,0c0.2,0,0.4-0.1,0.5-0.2l8.6-9.1c0.2-0.2,0.3-0.5,0.2-0.8
				c-0.1-0.3-0.3-0.5-0.6-0.5l-39.3-6.4l3.8-4c0.2-0.2,0.3-0.6,0.1-0.9C164.6,126.3,164.4,126.1,164.1,126.1L164.1,126.1z"/>
		</g>
		<g id="XMLID_164_">
			<path id="XMLID_21_" fill="#EDEDED" d="M97.1,160.9c-0.1,0-0.2,0-0.2-0.1c-0.1-0.1-0.1-0.2-0.1-0.3v-15.2c0-0.1,0.1-0.2,0.1-0.3
				c0.1,0,0.1-0.1,0.2-0.1c0,0,0.1,0,0.1,0l7.3,2.1l13.6-12.2c0.1-0.1,0.2-0.1,0.2-0.1c0,0,0.1,0,0.1,0l10.9,3.1
				c0.1,0,0.2,0.1,0.3,0.3s0,0.3-0.1,0.4l-12.9,12.1l7,2c0.2,0,0.3,0.2,0.3,0.4s-0.1,0.3-0.3,0.4l-26.5,7.6
				C97.2,160.9,97.1,160.9,97.1,160.9z"/>
			<path id="XMLID_18_" d="M118.4,135.2l10.9,3.1l-13.4,12.5l7.6,2.1l-26.5,7.6v-15.2l7.5,2.2L118.4,135.2 M118.4,134.4
				c-0.2,0-0.4,0.1-0.5,0.2l-13.5,12l-7.1-2c-0.1,0-0.1,0-0.2,0c-0.2,0-0.3,0.1-0.5,0.2c-0.2,0.1-0.3,0.4-0.3,0.6v15.2
				c0,0.2,0.1,0.5,0.3,0.6c0.1,0.1,0.3,0.2,0.5,0.2c0.1,0,0.1,0,0.2,0l26.5-7.6c0.3-0.1,0.5-0.4,0.5-0.7c0-0.3-0.2-0.6-0.5-0.7
				l-6.3-1.8l12.4-11.6c0.2-0.2,0.3-0.5,0.2-0.7c-0.1-0.3-0.3-0.5-0.5-0.5l-10.9-3.1C118.5,134.4,118.5,134.4,118.4,134.4
				L118.4,134.4z"/>
		</g>
		<g id="XMLID_78_">
			<path id="XMLID_16_" fill="#EDEDED" d="M139.3,127.7c0,0-0.1,0-0.1,0l-10.9-3.1c-0.1,0-0.2-0.1-0.3-0.3s0-0.3,0.1-0.4L141,112
				l-7-2c-0.2,0-0.3-0.2-0.3-0.4s0.1-0.3,0.3-0.4l26.5-7.6c0,0,0.1,0,0.1,0c0.1,0,0.2,0,0.2,0.1c0.1,0.1,0.1,0.2,0.1,0.3v15.2
				c0,0.1-0.1,0.2-0.1,0.3c-0.1,0-0.1,0.1-0.2,0.1c0,0-0.1,0-0.1,0l-7.3-2.1l-13.6,12.2C139.4,127.7,139.4,127.7,139.3,127.7z"/>
			<path id="XMLID_13_" d="M160.6,102v15.2l-7.5-2.2l-13.8,12.3l-10.9-3.1l13.4-12.5l-7.6-2.1L160.6,102 M160.6,101.3
				c-0.1,0-0.1,0-0.2,0l-26.5,7.6c-0.3,0.1-0.5,0.4-0.5,0.7c0,0.3,0.2,0.6,0.5,0.7l6.3,1.8l-12.4,11.6c-0.2,0.2-0.3,0.5-0.2,0.7
				c0.1,0.3,0.3,0.5,0.5,0.5l10.9,3.1c0.1,0,0.1,0,0.2,0c0.2,0,0.4-0.1,0.5-0.2l13.5-12l7.1,2c0.1,0,0.1,0,0.2,0
				c0.2,0,0.3-0.1,0.5-0.2c0.2-0.1,0.3-0.4,0.3-0.6V102c0-0.2-0.1-0.5-0.3-0.6C160.9,101.3,160.7,101.3,160.6,101.3L160.6,101.3z"/>
		</g>
	</g>
</g>
</svg>
