<?xml version="1.0" encoding="utf-8"?>
<!-- Generator: Adobe Illustrator 19.0.0, SVG Export Plug-In . SVG Version: 6.00 Build 0)  -->
<svg version="1.1" id="Layer_1" xmlns="http://www.w3.org/2000/svg" xmlns:xlink="http://www.w3.org/1999/xlink" x="0px" y="0px"
	 viewBox="0 0 283.5 181" enable-background="new 0 0 283.5 181" xml:space="preserve">
<rect id="XMLID_110_" x="0" y="0" fill="none" width="283.5" height="181"/>
<g id="XMLID_398_">
	
		<ellipse id="XMLID_565_" fill="#00B4FF" stroke="#8FD8F5" stroke-width="2.8346" stroke-miterlimit="10" cx="141.7" cy="58.8" rx="140.3" ry="57.3"/>
	<path id="XMLID_564_" fill="#0078AA" stroke="#8FD8F5" stroke-width="2.8346" stroke-miterlimit="10" d="M1.4,122.2V58.8
		c0,31.7,62.8,57.3,140.3,57.3S282,90.4,282,58.8v63.5c0,31.7-62.8,57.3-140.3,57.3S1.4,153.9,1.4,122.2z"/>
	<g id="XMLID_558_">
		<path id="XMLID_31_" fill="#EDEDED" d="M81.9,64.1c-0.2,0-0.4-0.1-0.5-0.3c-0.1-0.2-0.1-0.5,0.1-0.7l6.8-7.2L25,45.6
			c-0.2,0-0.4-0.2-0.5-0.4c-0.1-0.2,0-0.4,0.1-0.6l13.6-14.4c0.1-0.1,0.3-0.2,0.4-0.2c0,0,0.1,0,0.1,0l64.1,10.6l6.5-6.8
			c0.1-0.1,0.3-0.2,0.4-0.2c0,0,0.1,0,0.1,0c0.2,0,0.4,0.2,0.4,0.3l9.9,22.5c0.1,0.2,0.1,0.4,0,0.5s-0.2,0.3-0.4,0.3L82,64.1
			C82,64.1,82,64.1,81.9,64.1z"/>
		<path id="XMLID_28_" d="M38.7,30.6l64.4,10.6l6.7-7.1l9.9,22.5l-37.8,6.9l7.6-8L25.1,45.1L38.7,30.6 M38.7,29.5
			c-0.3,0-0.6,0.1-0.9,0.4L24.2,44.2c-0.3,0.3-0.4,0.8-0.3,1.2c0.1,0.4,0.5,0.7,0.9,0.8l62.2,10.1l-6.1,6.4
			c-0.4,0.4-0.4,0.9-0.2,1.4c0.2,0.4,0.6,0.6,1,0.6c0.1,0,0.1,0,0.2,0l37.8-6.9c0.4-0.1,0.7-0.3,0.8-0.6c0.2-0.3,0.2-0.7,0-1
			l-9.9-22.5c-0.2-0.4-0.5-0.6-0.9-0.7c-0.1,0-0.1,0-0.2,0c-0.3,0-0.6,0.1-0.9,0.4l-6.3,6.6L38.9,29.5
			C38.8,29.5,38.7,29.5,38.7,29.5L38.7,29.5z"/>
	</g>
	<g id="XMLID_552_">
		<path id="XMLID_26_" fill="#EDEDED" d="M242.2,85l-64.1-10.6l-6.5,6.8c-0.1,0.1-0.3,0.2-0.4,0.2c0,0-0.1,0-0.1,0
			c-0.2,0-0.4-0.2-0.4-0.3l-9.9-22.5c-0.1-0.2-0.1-0.4,0-0.5s0.2-0.3,0.4-0.3l37.8-6.9c0,0,0.1,0,0.1,0c0.2,0,0.4,0.1,0.5,0.3
			c0.1,0.2,0.1,0.5-0.1,0.7l-6.8,7.2L256,69.4c0.2,0,0.4,0.2,0.5,0.4c0.1,0.2,0,0.4-0.1,0.6l-13.6,14.4C242.6,85,242.4,85,242.2,85
			C242.2,85,242.2,85,242.2,85z"/>
		<path id="XMLID_23_" d="M199,51.6l-7.6,8L255.9,70l-13.6,14.4l-64.4-10.6l-6.7,7.1l-9.9-22.5L199,51.6 M199,50.4
			c-0.1,0-0.1,0-0.2,0L161,57.3c-0.4,0.1-0.7,0.3-0.8,0.6c-0.2,0.3-0.2,0.7,0,1l9.9,22.5c0.2,0.4,0.5,0.6,0.9,0.7c0.1,0,0.1,0,0.2,0
			c0.3,0,0.6-0.1,0.9-0.4l6.3-6.6l63.8,10.5c0.1,0,0.1,0,0.2,0c0.3,0,0.6-0.1,0.9-0.4l13.6-14.4c0.3-0.3,0.4-0.8,0.3-1.2
			c-0.1-0.4-0.5-0.7-0.9-0.8l-62.2-10.1l6.1-6.4c0.4-0.4,0.4-0.9,0.2-1.4C199.9,50.6,199.5,50.4,199,50.4L199,50.4z"/>
	</g>
	<g id="XMLID_503_">
		<path id="XMLID_21_" fill="#EDEDED" d="M93,105.4c-0.1,0-0.3,0-0.4-0.1c-0.1-0.1-0.2-0.3-0.2-0.5V80.7c0-0.2,0.1-0.4,0.2-0.5
			c0.1-0.1,0.2-0.1,0.4-0.1c0.1,0,0.1,0,0.2,0l11.6,3.3l21.6-19.2c0.1-0.1,0.3-0.2,0.4-0.2c0.1,0,0.1,0,0.2,0l17.3,4.8
			c0.2,0.1,0.4,0.2,0.4,0.4c0.1,0.2,0,0.4-0.2,0.6L124,89.1l11,3.1c0.3,0.1,0.4,0.3,0.4,0.6c0,0.3-0.2,0.5-0.4,0.6l-41.9,12
			C93.1,105.4,93,105.4,93,105.4z"/>
		<path id="XMLID_18_" d="M126.7,64.7l17.3,4.8l-21.1,19.9l12,3.4l-41.9,12V80.7l11.9,3.4L126.7,64.7 M126.7,63.5
			c-0.3,0-0.6,0.1-0.8,0.3l-21.3,19l-11.3-3.2c-0.1,0-0.2,0-0.3,0c-0.3,0-0.5,0.1-0.7,0.2c-0.3,0.2-0.5,0.6-0.5,0.9v24.1
			c0,0.4,0.2,0.7,0.5,0.9c0.2,0.2,0.5,0.2,0.7,0.2c0.1,0,0.2,0,0.3,0l41.9-12c0.5-0.1,0.9-0.6,0.9-1.1c0-0.5-0.4-1-0.9-1.1l-10-2.8
			l19.6-18.4c0.3-0.3,0.4-0.7,0.3-1.1c-0.1-0.4-0.4-0.7-0.8-0.9L127,63.5C126.9,63.5,126.8,63.5,126.7,63.5L126.7,63.5z"/>
	</g>
	<g id="XMLID_399_">
		<path id="XMLID_16_" fill="#EDEDED" d="M159.7,53c-0.1,0-0.1,0-0.2,0l-17.3-4.8c-0.2-0.1-0.4-0.2-0.4-0.4c-0.1-0.2,0-0.4,0.2-0.6
			L162.5,28l-11-3.1c-0.3-0.1-0.4-0.3-0.4-0.6c0-0.3,0.2-0.5,0.4-0.6l41.9-12c0.1,0,0.1,0,0.2,0c0.1,0,0.3,0,0.4,0.1
			c0.1,0.1,0.2,0.3,0.2,0.5v24.1c0,0.2-0.1,0.4-0.2,0.5c-0.1,0.1-0.2,0.1-0.4,0.1c-0.1,0-0.1,0-0.2,0l-11.6-3.3l-21.6,19.2
			C160,52.9,159.9,53,159.7,53z"/>
		<path id="XMLID_13_" d="M193.5,12.2v24.1l-11.9-3.4l-21.8,19.5l-17.3-4.8l21.1-19.9l-12-3.4L193.5,12.2 M193.5,11.1
			c-0.1,0-0.2,0-0.3,0l-41.9,12c-0.5,0.1-0.9,0.6-0.9,1.1c0,0.5,0.4,1,0.9,1.1l10,2.8l-19.6,18.4c-0.3,0.3-0.4,0.7-0.3,1.1
			c0.1,0.4,0.4,0.7,0.8,0.9l17.3,4.8c0.1,0,0.2,0,0.3,0c0.3,0,0.6-0.1,0.8-0.3l21.3-19l11.3,3.2c0.1,0,0.2,0,0.3,0
			c0.3,0,0.5-0.1,0.7-0.2c0.3-0.2,0.5-0.6,0.5-0.9V12.2c0-0.4-0.2-0.7-0.5-0.9C194,11.1,193.7,11.1,193.5,11.1L193.5,11.1z"/>
	</g>
</g>
</svg>
