<?xml version="1.0" encoding="utf-8"?>
<!-- Generator: Adobe Illustrator 19.0.0, SVG Export Plug-In . SVG Version: 6.00 Build 0)  -->
<svg version="1.1" id="Layer_1" xmlns="http://www.w3.org/2000/svg" xmlns:xlink="http://www.w3.org/1999/xlink" x="0px" y="0px"
	 viewBox="0 0 283.5 203.2" enable-background="new 0 0 283.5 203.2" xml:space="preserve">
<g id="XMLID_286_">
	<g id="XMLID_638_">
		<linearGradient id="XMLID_46_" gradientUnits="userSpaceOnUse" x1="141.7321" y1="201.9728" x2="141.7321" y2="1.2086">
			<stop  offset="0" style="stop-color:#C8C8C8"/>
			<stop  offset="1" style="stop-color:#969696"/>
		</linearGradient>
		<path id="XMLID_16_" fill="url(#XMLID_46_)" d="M206.9,202c-18.4,0-36.2-6.7-50-19l-1-0.9l-0.8,1c-6.8,9-17.2,14.1-28.4,14.1
			c-14.1,0-26.9-8.3-32.7-21.3l-0.6-1.2l-1.2,0.7c-9.3,5.6-20,8.5-30.9,8.5c-33.2,0-60.2-27-60.2-60.2c0-32.3,25.3-58.7,57.5-60.1
			l1,0l0.2-1c2.7-17,11.4-32.5,24.5-43.8C97.7,7.5,114.6,1.2,132.1,1.2c31.2,0,59,19.9,69.2,49.4l0.3,0.9l0.9-0.1
			c1.6-0.1,3.1-0.1,4.5-0.1c41.5,0,75.3,33.8,75.3,75.3C282.3,168.2,248.5,202,206.9,202z"/>
		<path id="XMLID_13_" fill="#DCDCDC" d="M132.1,2.4c30.7,0,58.1,19.5,68,48.6l0.6,1.7l1.8-0.1c1.6-0.1,3.1-0.1,4.4-0.1
			c40.9,0,74.1,33.3,74.1,74.1s-33.3,74.1-74.1,74.1c-18.1,0-35.6-6.6-49.2-18.7l-1.9-1.7l-1.6,2.1c-6.6,8.7-16.6,13.6-27.5,13.6
			c-13.6,0-26-8.1-31.6-20.5l-1.1-2.5l-2.3,1.4c-9.1,5.5-19.6,8.4-30.3,8.4c-32.5,0-59-26.5-59-59C2.4,108.5,8.3,94,18.8,83
			c10.6-11,24.8-17.4,40-18.1l2-0.1l0.3-1.9c2.7-16.7,11.2-32,24.1-43.1C98.2,8.6,114.9,2.4,132.1,2.4 M132.1,0
			C95,0,64.4,27.1,58.7,62.5C26,63.9,0,90.8,0,123.8c0,33.9,27.5,61.4,61.4,61.4c11.5,0,22.3-3.2,31.5-8.7c5.7,12.9,18.7,22,33.8,22
			c12,0,22.7-5.7,29.4-14.6c13.5,12,31.3,19.3,50.8,19.3c42.3,0,76.5-34.3,76.5-76.5s-34.3-76.5-76.5-76.5c-1.5,0-3,0.1-4.5,0.1
			C192.4,21,164.7,0,132.1,0L132.1,0z"/>
	</g>
	<g id="XMLID_287_">
		<path id="XMLID_633_" fill="#221714" d="M189.3,137.2H68.5V71c0-2.5,2-4.4,4.4-4.4h112c2.5,0,4.4,2,4.4,4.4V137.2z"/>
		<path id="XMLID_629_" fill="#CED5E0" d="M189.3,137.2H68.5v8.1c0,2.5,2,4.4,4.4,4.4h112c2.5,0,4.4-2,4.4-4.4V137.2z"/>
		<circle id="XMLID_626_" fill="#9BA1B2" cx="128.9" cy="143.5" r="3"/>
		<rect id="XMLID_625_" x="74.7" y="72.7" fill="#76AFDD" width="108.5" height="58.5"/>
		<path id="XMLID_606_" fill="#CED5E0" d="M112.4,168.5c-1.1,0-2.1-0.9-2.1-2.1c0-1.1,0.9-2.1,2.1-2.1h33.2c1.1,0,2.1,0.9,2.1,2.1
			c0,1.1-0.9,2.1-2.1,2.1H112.4z"/>
		<polygon id="XMLID_592_" fill="#B6BFD1" points="112.7,164.4 114.5,149.8 143.6,149.8 145.3,164.4 		"/>
		<polygon id="XMLID_351_" fill="#9BA1B2" points="114.5,149.8 113.8,155.7 144.3,155.7 143.6,149.8 		"/>
	</g>
</g>
</svg>
