<?xml version="1.0" encoding="utf-8"?>
<!-- Generator: Adobe Illustrator 19.0.0, SVG Export Plug-In . SVG Version: 6.00 Build 0)  -->
<svg version="1.1" id="Layer_1" xmlns="http://www.w3.org/2000/svg" xmlns:xlink="http://www.w3.org/1999/xlink" x="0px" y="0px"
	 viewBox="0 0 283.5 242.5" enable-background="new 0 0 283.5 242.5" xml:space="preserve">
<g id="XMLID_28_">
	<path id="XMLID_34_" d="M90,91.6c23.1,0.8,38.2,11.1,48.1,18.1l28.1-91.9c-9.8-6.6-24.7-15.7-48-17.6C94-1.8,60.6,11,60.6,11
		l-27.9,91.2C38.7,100.2,68,90.8,90,91.6z"/>
	<path id="XMLID_36_" d="M150.6,117.8c9.7,5.7,22.1,12,30.4,14.7c10.8,3.5,28.2,2.8,38.5,1.2c9.7-1.4,28.7-6.7,36.7-9.4l27.3-91.7
		c-7.1,2.5-27.4,9.1-37.5,10.6s-27.3,1-37.9-2.5c-8-2.7-19.9-9-29.4-14.8L150.6,117.8z"/>
	<path id="XMLID_37_" d="M214.6,149.4c-10.2,1.5-27.7,1.9-38.5-1.7c-8.2-2.7-20.5-8.9-30.2-14.6l-28.2,92c3.9,2.6,8.5,5.3,14.8,8.3
		c17.7,8.3,27.3,10.2,46.2,8.8c19-1.4,45.5-10.4,45.5-10.4l27.4-92.3C243.9,142.1,224.5,147.9,214.6,149.4z"/>
	<path id="XMLID_56_" d="M133.5,125c-10-7-25-17.4-48.3-18.2c-21.8-0.8-50.7,8.4-57.1,10.6L0,209c0,0,9.6-4.2,22.9-7.9
		c13.8-3.9,27.9-4.4,37-3.8c11.5,0.8,25,4.9,38.1,13.5c2.9,1.9,5.3,3.6,7.6,5.3L133.5,125z"/>
</g>
</svg>
